<?xml version="1.0" encoding="UTF-8"?>
<svg xmlns="http://www.w3.org/2000/svg" width="154" height="32" viewBox="0 0 154 32" fill="none"><path d="M5.24662 6.48443C5.28789 6.23361 5.49744 6.06851 5.7451 6.06851H7.40564C8.52642 6.06851 9.06618 5.52875 9.06618 4.40796V3.36973C9.06618 3.12208 9.23128 2.9538 9.48211 2.9538H15.6321C15.8798 2.9538 16.0481 3.1189 16.0481 3.36973V4.40796C16.0481 5.52875 16.5878 6.06851 17.7118 6.06851H19.3723C19.62 6.06851 19.8295 6.23361 19.8708 6.48443L25.1064 31.5831C25.1477 31.8339 25.0239 31.999 24.7731 31.999H21.8647C21.6171 31.999 21.4075 31.8339 21.3663 31.5831L20.4931 27.4269H4.62114L3.748 31.5831C3.70673 31.8339 3.49717 31.999 3.24952 31.999H0.341193C0.090366 31.999 -0.0334602 31.8339 0.00781521 31.5831L5.24662 6.48443ZM8.73598 7.68777L5.28789 24.3091H19.8295L16.3815 7.68777C16.1751 6.60826 15.5083 6.06851 14.3875 6.06851H10.7299C9.60911 6.06851 8.94235 6.60826 8.73598 7.68777Z" fill="white"/><path d="M30.0912 0.00101852H32.5836C32.8345 0.00101852 32.9996 0.16612 32.9996 0.416948V31.5799C32.9996 31.8307 32.8345 31.9958 32.5836 31.9958H30.0912C29.8404 31.9958 29.6753 31.8307 29.6753 31.5799V0.416948C29.6753 0.16612 29.8404 0.00101852 30.0912 0.00101852Z" fill="white"/><path d="M56.936 31.9958H54.4436C54.1928 31.9958 54.0277 31.8307 54.0277 31.5799V22.3564H43.3913C42.2705 22.3564 41.7276 22.8962 41.7276 24.0201V27.2206C41.7276 28.3414 42.2673 28.8811 43.3913 28.8811H51.6178C51.8686 28.8811 52.0337 29.0462 52.0337 29.297V31.5831C52.0337 31.8339 51.8686 31.999 51.6178 31.999H42.1435C41.8959 31.999 41.7276 31.8339 41.7276 31.5831V30.5448C41.7276 29.424 41.1878 28.8811 40.067 28.8811H38.8193C38.5684 28.8811 38.4033 28.716 38.4033 28.4652V22.7723C38.4033 22.5215 38.5684 22.3564 38.8193 22.3564H40.067C41.1878 22.3564 41.7276 21.8167 41.7276 20.6959V19.6576C41.7276 19.41 41.8927 19.2417 42.1435 19.2417H54.0277V15.1681C54.0277 14.0474 53.4879 13.5076 52.3671 13.5076H42.1435C41.8959 13.5076 41.7276 13.3425 41.7276 13.0917V10.8057C41.7276 10.558 41.8927 10.3897 42.1435 10.3897H53.6117C53.8594 10.3897 54.0277 10.5548 54.0277 10.8057V11.8439C54.0277 12.9647 54.5674 13.5076 55.6882 13.5076H56.936C57.1868 13.5076 57.3519 13.6727 57.3519 13.9235V31.5831C57.3519 31.8339 57.1868 31.999 56.936 31.999" fill="white"/><path d="M66.4898 15.1681V31.5799C66.4898 31.8307 66.3247 31.9958 66.0739 31.9958H63.5815C63.3338 31.9958 63.1655 31.8307 63.1655 31.5799V13.9204C63.1655 13.6695 63.3306 13.5044 63.5815 13.5044H64.8292C65.95 13.5044 66.4898 12.9647 66.4898 11.8439V10.8057C66.4898 10.5548 66.6549 10.3897 66.9057 10.3897H78.0405C78.2882 10.3897 78.4565 10.5548 78.4565 10.8057V11.8439C78.4565 12.9647 78.9962 13.5044 80.117 13.5044H81.3648C81.6156 13.5044 81.7807 13.6695 81.7807 13.9204V31.5799C81.7807 31.8307 81.6156 31.9958 81.3648 31.9958H78.8724C78.6248 31.9958 78.4565 31.8307 78.4565 31.5799V15.1681C78.4565 14.0474 77.9167 13.5044 76.7928 13.5044H68.1503C67.0295 13.5044 66.4898 14.0442 66.4898 15.1681Z" fill="white"/><path d="M104.885 31.9958H102.393C102.142 31.9958 101.977 31.8307 101.977 31.5799V22.3564H91.3408C90.22 22.3564 89.6802 22.8962 89.6802 24.0201V27.2206C89.6802 28.3414 90.22 28.8811 91.3408 28.8811H99.5673C99.8181 28.8811 99.9832 29.0462 99.9832 29.297V31.5831C99.9832 31.8339 99.8181 31.999 99.5673 31.999H90.093C89.8453 31.999 89.677 31.8339 89.677 31.5831V30.5448C89.677 29.424 89.1373 28.8811 88.0133 28.8811H86.7655C86.5147 28.8811 86.3496 28.716 86.3496 28.4652V22.7723C86.3496 22.5215 86.5147 22.3564 86.7655 22.3564H88.0133C89.1341 22.3564 89.677 21.8167 89.677 20.6959V19.6576C89.677 19.41 89.8421 19.2417 90.093 19.2417H101.977V15.1681C101.977 14.0474 101.437 13.5076 100.317 13.5076H90.093C89.8453 13.5076 89.677 13.3425 89.677 13.0917V10.8057C89.677 10.558 89.8421 10.3897 90.093 10.3897H101.561C101.812 10.3897 101.977 10.5548 101.977 10.8057V11.8439C101.977 12.9647 102.517 13.5076 103.638 13.5076H104.885C105.133 13.5076 105.301 13.6727 105.301 13.9235V31.5831C105.301 31.8339 105.136 31.999 104.885 31.999" fill="white"/><path d="M111.118 3.78249C111.118 3.53166 111.283 3.36656 111.534 3.36656H114.026C114.277 3.36656 114.442 3.53166 114.442 3.78249V10.431H125.288C125.539 10.431 125.704 10.5548 125.704 10.7231V13.2155C125.704 13.4219 125.539 13.5489 125.288 13.5489H114.442V27.2206C114.442 28.3414 114.982 28.8843 116.103 28.8843H120.716C121.837 28.8843 122.377 28.3445 122.377 27.2206V22.7755C122.377 22.5247 122.542 22.3596 122.793 22.3596H125.285C125.536 22.3596 125.701 22.5247 125.701 22.7755V28.4684C125.701 28.7192 125.536 28.8843 125.285 28.8843H124.037C122.916 28.8843 122.377 29.424 122.377 30.5448V31.5831C122.377 31.8339 122.211 31.999 121.961 31.999H114.855C114.604 31.999 114.439 31.8339 114.439 31.5831V30.5448C114.439 29.424 113.899 28.8843 112.778 28.8843H111.531C111.283 28.8843 111.115 28.7192 111.115 28.4684V3.78249H111.118Z" fill="white"/><path d="M143.487 31.9958H134.013C133.762 31.9958 133.597 31.8307 133.597 31.5799V30.5416C133.597 29.4208 133.057 28.8779 131.937 28.8779H130.689C130.438 28.8779 130.273 28.7128 130.273 28.462V22.7692C130.273 22.5183 130.438 22.3532 130.689 22.3532H131.937C133.057 22.3532 133.597 21.8135 133.597 20.6927V19.6545C133.597 19.4068 133.762 19.2385 134.013 19.2385H145.897V15.165C145.897 14.0442 145.358 13.5044 144.237 13.5044H134.013C133.762 13.5044 133.597 13.3393 133.597 13.0885V10.8025C133.597 10.5548 133.762 10.3865 134.013 10.3865H145.481C145.732 10.3865 145.897 10.5516 145.897 10.8025V11.8407C145.897 12.9615 146.437 13.5044 147.558 13.5044H148.806C149.053 13.5044 149.222 13.6695 149.222 13.9203V27.2174C149.222 28.3382 149.761 28.8779 150.882 28.8779H153.584C153.835 28.8779 154 29.043 154 29.2938V31.5799C154 31.8307 153.835 31.9958 153.584 31.9958H149.637C149.387 31.9958 149.222 31.8307 149.222 31.5799V30.5416C149.222 29.4208 148.682 28.8779 147.561 28.8779H146.313C146.062 28.8779 145.897 28.7128 145.897 28.462V22.3532H135.261C134.14 22.3532 133.6 22.893 133.6 24.0169V27.2174C133.6 28.3382 134.14 28.8779 135.261 28.8779H143.487C143.738 28.8779 143.903 29.043 143.903 29.2938V31.5799C143.903 31.8307 143.738 31.9958 143.487 31.9958Z" fill="white"/></svg>