<?xml version="1.0" encoding="UTF-8" standalone="no"?>
<!-- Generator: Adobe Illustrator 28.2.0, SVG Export Plug-In . SVG Version: 6.00 Build 0)  -->

<svg
   version="1.1"
   id="Layer_1"
   x="0px"
   y="0px"
   viewBox="0 0 221.10002 74.600001"
   xml:space="preserve"
   sodipodi:docname="cef.svg"
   width="221.10001"
   height="74.599998"
   inkscape:version="1.2.2 (732a01da63, 2022-12-09)"
   xmlns:inkscape="http://www.inkscape.org/namespaces/inkscape"
   xmlns:sodipodi="http://sodipodi.sourceforge.net/DTD/sodipodi-0.dtd"
   xmlns="http://www.w3.org/2000/svg"
   xmlns:svg="http://www.w3.org/2000/svg"><defs
   id="defs67" /><sodipodi:namedview
   id="namedview65"
   pagecolor="#ffffff"
   bordercolor="#000000"
   borderopacity="0.25"
   inkscape:showpageshadow="2"
   inkscape:pageopacity="0.0"
   inkscape:pagecheckerboard="0"
   inkscape:deskcolor="#d1d1d1"
   showgrid="false"
   inkscape:zoom="1.5506179"
   inkscape:cx="-49.657624"
   inkscape:cy="143.49119"
   inkscape:window-width="1920"
   inkscape:window-height="991"
   inkscape:window-x="-9"
   inkscape:window-y="-9"
   inkscape:window-maximized="1"
   inkscape:current-layer="Layer_1" />
<style
   type="text/css"
   id="style2">
	.st0{fill:#FFFFFF;}
</style>
<g
   id="g62"
   transform="translate(5.1,1.6999998)">
	<path
   class="st0"
   d="m 119.7,35.9 c 0,-13.8 9.7,-21.1 25.5,-21.1 v -5 h -0.3 c -19.5,0 -35.6,9.1 -35.6,26.1 0,16.8 17.9,25.5 36.8,25.7 l -1.6,-5.1 C 130.1,55.8 119.7,49 119.7,35.9 Z"
   id="path4" />
	<polygon
   class="st0"
   points="160.1,32.7 173.1,32.7 171.2,26.6 160.1,26.6 160.1,15.7 173.6,15.7 173.6,9.9 150,9.9 150,26.6 146.5,26.6 148.5,32.7 150,32.7 150,61.4 173.6,61.4 173.6,55.3 160.1,55.3 "
   id="polygon6" />
	<polygon
   class="st0"
   points="178,32.7 182,32.7 182,61.4 192.1,61.4 192.1,32.7 205.2,32.7 203.2,26.6 192.1,26.6 192.1,16 206,16 206,9.9 182,9.9 182,26.6 178,26.6 174.8,26.6 173.7,26.6 175.7,32.7 "
   id="polygon8" />
	<rect
   x="97.199997"
   y="8.3000002"
   class="st0"
   width="1"
   height="54.599998"
   id="rect10" />
	<path
   class="st0"
   d="m 36.5,24 c 1.9,0 3.5,-1.1 4,-2.8 0,0 0,-0.1 0,-0.1 0,0 0,0 -0.1,0 h -1.1 c 0,0 -0.1,0 -0.1,0.1 -0.4,1.1 -1.5,1.8 -2.7,1.8 -1.8,0 -3.2,-1.4 -3.2,-3.4 0,-1.9 1.4,-3.4 3.2,-3.4 1.2,0 2.3,0.7 2.7,1.8 0,0 0.1,0.1 0.1,0.1 h 1.1 c 0,0 0.1,0 0.1,0 0,0 0,-0.1 0,-0.1 -0.6,-1.7 -2.2,-2.8 -4,-2.8 -2.5,0 -4.4,1.9 -4.4,4.5 0,2.6 1.9,4.3 4.4,4.3 z"
   id="path12" />
	<path
   class="st0"
   d="m 47.3,23.9 c 0.1,0 0.1,0 0.1,-0.1 v -0.9 c 0,-0.1 0,-0.1 -0.1,-0.1 H 43.4 V 20 h 3.2 c 0.1,0 0.1,0 0.1,-0.1 V 19 c 0,-0.1 0,-0.1 -0.1,-0.1 h -3.2 v -2.6 h 3.7 c 0.1,0 0.1,0 0.1,-0.1 v -0.9 c 0,-0.1 0,-0.1 -0.1,-0.1 h -4.8 c -0.1,0 -0.1,0 -0.1,0.1 v 8.4 c 0,0.1 0,0.1 0.1,0.1 h 5 z"
   id="path14" />
	<path
   class="st0"
   d="m 50.4,23.9 c 0.1,0 0.1,0 0.1,-0.1 v -7.3 l 3.6,7.3 c 0,0 0.1,0.1 0.1,0.1 h 1.6 c 0.1,0 0.1,0 0.1,-0.1 v -8.4 c 0,-0.1 0,-0.1 -0.1,-0.1 h -1 c -0.1,0 -0.1,0 -0.1,0.1 v 7.3 L 51,15.4 c 0,0 -0.1,-0.1 -0.1,-0.1 h -1.6 c -0.1,0 -0.1,0 -0.1,0.1 v 8.4 c 0,0.1 0,0.1 0.1,0.1 z"
   id="path16" />
	<path
   class="st0"
   d="m 60,16.3 v 7.5 c 0,0.1 0,0.1 0.1,0.1 h 1 c 0.1,0 0.1,0 0.1,-0.1 v -7.5 h 2.4 c 0.1,0 0.1,0 0.1,-0.1 v -0.9 c 0,-0.1 0,-0.1 -0.1,-0.1 h -5.9 c -0.1,0 -0.1,0 -0.1,0.1 v 0.9 c 0,0.1 0,0.1 0.1,0.1 z"
   id="path18" />
	<path
   class="st0"
   d="m 66.4,23.9 c 0.1,0 0.1,0 0.1,-0.1 v -3.3 h 1.3 l 2.1,3.4 c 0,0 0.1,0 0.1,0 h 1.2 c 0,0 0.1,0 0.1,-0.1 0,0 0,-0.1 0,-0.1 L 69,20.3 c 1.2,-0.3 1.9,-1.2 1.9,-2.6 0,-1.6 -1.1,-2.6 -2.8,-2.6 h -2.7 c -0.1,0 -0.1,0 -0.1,0.1 v 8.4 c 0,0.1 0,0.1 0.1,0.1 h 1 z m 0.1,-7.6 H 68 c 1,0 1.7,0.6 1.7,1.5 0,1 -0.6,1.6 -1.6,1.6 h -1.6 z"
   id="path20" />
	<path
   class="st0"
   d="m 79.8,23.8 c 0,0 0,0 0,0 l -3.1,-8.5 c 0,0 -0.1,-0.1 -0.1,-0.1 h -1.4 c 0,0 -0.1,0 -0.1,0.1 L 72,23.7 c 0,0 0,0.1 0,0.1 0,0 0,0 0.1,0 h 1 c 0,0 0.1,0 0.1,-0.1 l 0.7,-1.9 h 4 l 0.7,1.9 c 0,0 0.1,0.1 0.1,0.1 h 1.1 c -0.1,0.1 -0.1,0.1 0,0 z m -5.5,-3 1.6,-4.4 1.6,4.4 z"
   id="path22" />
	<path
   class="st0"
   d="m 82.5,22.8 v -7.5 c 0,-0.1 0,-0.1 -0.1,-0.1 h -1 c -0.1,0 -0.1,0 -0.1,0.1 v 8.4 c 0,0.1 0,0.1 0.1,0.1 H 86 c 0.1,0 0.1,0 0.1,-0.1 v -0.9 c 0,-0.1 0,-0.1 -0.1,-0.1 h -3.5 z"
   id="path24" />
	<path
   class="st0"
   d="m 27.8,40 c 0.1,0 0.1,0 0.1,-0.1 V 39 c 0,-0.1 0,-0.1 -0.1,-0.1 h -3.9 v -2.8 h 3.2 c 0.1,0 0.1,0 0.1,-0.1 v -0.9 c 0,-0.1 0,-0.1 -0.1,-0.1 h -3.2 v -2.6 h 3.7 c 0.1,0 0.1,0 0.1,-0.1 v -0.9 c 0,-0.1 0,-0.1 -0.1,-0.1 h -4.8 c -0.1,0 -0.1,0 -0.1,0.1 v 8.4 c 0,0.1 0,0.1 0.1,0.1 h 5 z"
   id="path26" />
	<path
   class="st0"
   d="m 32.9,40.1 c 2,0 3.2,-1.3 3.2,-3.3 v -5.4 c 0,-0.1 0,-0.1 -0.1,-0.1 h -1 c -0.1,0 -0.1,0 -0.1,0.1 v 5.4 c 0,1.4 -0.8,2.2 -2.1,2.2 -1.3,0 -2.1,-0.8 -2.1,-2.2 v -5.4 c 0,-0.1 0,-0.1 -0.1,-0.1 h -1 c -0.1,0 -0.1,0 -0.1,0.1 v 5.4 c 0.1,2.1 1.4,3.3 3.4,3.3 z"
   id="path28" />
	<path
   class="st0"
   d="m 39.6,39.9 v -3.3 h 1.3 L 43,40 c 0,0 0.1,0 0.1,0 h 1.2 c 0,0 0.1,0 0.1,-0.1 0,0 0,-0.1 0,-0.1 l -2.2,-3.4 c 1.2,-0.3 1.9,-1.2 1.9,-2.6 0,-1.6 -1.1,-2.6 -2.8,-2.6 h -2.7 c -0.1,0 -0.1,0 -0.1,0.1 v 8.4 c 0,0.1 0,0.1 0.1,0.1 h 1 c 0,0.2 0,0.1 0,0.1 z m 0,-7.5 h 1.5 c 1,0 1.7,0.6 1.7,1.5 0,1 -0.6,1.6 -1.6,1.6 h -1.6 z"
   id="path30" />
	<path
   class="st0"
   d="m 49.9,31.2 c -2.5,0 -4.4,1.9 -4.4,4.5 0,2.6 1.9,4.5 4.4,4.5 2.5,0 4.4,-1.9 4.4,-4.5 0,-2.6 -1.9,-4.5 -4.4,-4.5 z m 0,7.8 c -1.8,0 -3.2,-1.4 -3.2,-3.4 0,-1.9 1.4,-3.4 3.2,-3.4 1.8,0 3.2,1.4 3.2,3.4 0,2 -1.4,3.4 -3.2,3.4 z"
   id="path32" />
	<path
   class="st0"
   d="m 59,31.3 h -2.8 c -0.1,0 -0.1,0 -0.1,0.1 v 8.4 c 0,0.1 0,0.1 0.1,0.1 h 1 c 0.1,0 0.1,0 0.1,-0.1 V 36.6 H 59 c 1.6,0 2.7,-1.1 2.7,-2.7 0,-1.5 -1,-2.6 -2.7,-2.6 z m 0,4.2 H 57.4 V 32.3 H 59 c 0.9,0 1.6,0.6 1.6,1.6 -0.1,1 -0.7,1.6 -1.6,1.6 z"
   id="path34" />
	<path
   class="st0"
   d="m 68.4,32.4 c 0.1,0 0.1,0 0.1,-0.1 v -0.9 c 0,-0.1 0,-0.1 -0.1,-0.1 h -4.8 c -0.1,0 -0.1,0 -0.1,0.1 v 8.4 c 0,0.1 0,0.1 0.1,0.1 h 4.9 c 0.1,0 0.1,0 0.1,-0.1 V 39 c 0,-0.1 0,-0.1 -0.1,-0.1 h -3.9 v -2.8 h 3.2 c 0.1,0 0.1,0 0.1,-0.1 v -0.9 c 0,-0.1 0,-0.1 -0.1,-0.1 h -3.2 v -2.6 z"
   id="path36" />
	<path
   class="st0"
   d="m 74.1,31.3 h -1.4 c 0,0 -0.1,0 -0.1,0.1 l -3.1,8.4 c 0,0 0,0.1 0,0.1 0,0 0,0 0.1,0 h 1 c 0,0 0.1,0 0.1,-0.1 l 0.7,-1.9 h 4 l 0.7,1.9 c 0,0 0.1,0.1 0.1,0.1 h 1 c 0,0 0.1,0 0.1,0 0,0 0,-0.1 0,-0.1 l -3.2,-8.5 c 0.1,0 0.1,0 0,0 z m -2.3,5.6 1.6,-4.4 1.6,4.4 z"
   id="path38" />
	<path
   class="st0"
   d="M 79.9,40 C 80,40 80,40 80,39.9 v -7.3 l 3.6,7.3 c 0,0 0.1,0.1 0.1,0.1 h 1.6 c 0.1,0 0.1,0 0.1,-0.1 v -8.4 c 0,-0.1 0,-0.1 -0.1,-0.1 h -1 c -0.1,0 -0.1,0 -0.1,0.1 v 7.3 l -3.7,-7.3 c 0,0 -0.1,-0.1 -0.1,-0.1 h -1.6 c -0.1,0 -0.1,0 -0.1,0.1 v 8.4 c 0,0.1 0,0.1 0.1,0.1 z"
   id="path40" />
	<path
   class="st0"
   d="m 5,47.4 c -0.1,0 -0.1,0 -0.1,0.1 v 8.4 C 4.9,56 4.9,56 5,56 h 1 c 0,0 0,0 0,-0.1 v -3.7 h 3.5 c 0.1,0 0.1,0 0.1,-0.1 v -0.9 c 0,-0.1 0,-0.1 -0.1,-0.1 H 6 v -2.7 h 3.7 c 0.1,0 0.1,0 0.1,-0.1 v -0.9 c 0,-0.1 0,-0.1 -0.1,-0.1 H 5 Z"
   id="path42" />
	<path
   class="st0"
   d="m 15.5,47.2 c -2.5,0 -4.4,1.9 -4.4,4.5 0,2.6 1.9,4.5 4.4,4.5 2.5,0 4.4,-1.9 4.4,-4.5 0,-2.5 -1.9,-4.5 -4.4,-4.5 z m 0,7.9 c -1.8,0 -3.2,-1.4 -3.2,-3.4 0,-1.9 1.4,-3.4 3.2,-3.4 1.8,0 3.2,1.4 3.2,3.4 0,1.9 -1.4,3.4 -3.2,3.4 z"
   id="path44" />
	<path
   class="st0"
   d="m 27.1,47.4 c -0.1,0 -0.1,0 -0.1,0.1 v 5.4 c 0,1.4 -0.8,2.2 -2.1,2.2 -1.3,0 -2.1,-0.8 -2.1,-2.2 v -5.4 c 0,-0.1 0,-0.1 -0.1,-0.1 h -1 c -0.1,0 -0.1,0 -0.1,0.1 v 5.4 c 0,2 1.2,3.3 3.2,3.3 2,0 3.2,-1.3 3.2,-3.3 v -5.4 c 0,-0.1 0,-0.1 -0.1,-0.1 z"
   id="path46" />
	<path
   class="st0"
   d="m 36.1,47.4 c -0.1,0 -0.1,0 -0.1,0.1 v 7.3 l -3.7,-7.3 c 0,0 -0.1,-0.1 -0.1,-0.1 h -1.6 c -0.1,0 -0.1,0 -0.1,0.1 v 8.4 c 0,0.1 0,0.1 0.1,0.1 h 1 c 0.1,0 0.1,0 0.1,-0.1 v -7.3 l 3.6,7.3 c 0,0 0.1,0.1 0.1,0.1 H 37 c 0.1,0 0.1,0 0.1,-0.1 v -8.4 c 0,-0.1 0,-0.1 -0.1,-0.1 z"
   id="path48" />
	<path
   class="st0"
   d="m 42.5,47.4 h -3.1 c -0.1,0 -0.1,0 -0.1,0.1 v 0.8 c 0,0.1 0,0.1 0.1,0.1 h 0.7 V 55 h -0.7 c -0.1,0 -0.1,0 -0.1,0.1 v 0.8 c 0,0.1 0,0.1 0.1,0.1 h 3.1 c 2.7,0 4.3,-1.6 4.3,-4.3 0.1,-2.6 -1.6,-4.3 -4.3,-4.3 z m 0,7.6 h -1.2 v -6.5 h 1.2 c 1.9,0 3.1,1.2 3.1,3.2 0.1,2.1 -1.1,3.3 -3.1,3.3 z"
   id="path50" />
	<path
   class="st0"
   d="m 52.1,47.4 h -1.4 c 0,0 -0.1,0 -0.1,0.1 l -3.1,8.4 c 0,0 0,0.1 0,0.1 0,0 0,0 0.1,0 h 1 c 0,0 0.1,0 0.1,-0.1 L 49.4,54 h 4 l 0.7,1.9 c 0,0 0.1,0.1 0.1,0.1 h 1 c 0,0 0.1,0 0.1,0 0,0 0,-0.1 0,-0.1 l -3.2,-8.5 c 0.1,0 0.1,0 0,0 z M 49.8,53 51.4,48.6 53,53 Z"
   id="path52" />
	<path
   class="st0"
   d="m 55.5,47.4 c -0.1,0 -0.1,0 -0.1,0.1 v 0.9 c 0,0.1 0,0.1 0.1,0.1 h 2.4 V 56 c 0,0.1 0,0.1 0.1,0.1 h 1 c 0.1,0 0.1,0 0.1,-0.1 v -7.5 h 2.4 c 0.1,0 0.1,0 0.1,-0.1 v -0.9 c 0,-0.1 0,-0.1 -0.1,-0.1 z"
   id="path54" />
	<path
   class="st0"
   d="m 63.1,47.4 c -0.1,0 -0.1,0 -0.1,0.1 v 0.8 c 0,0.1 0,0.1 0.1,0.1 h 1.2 V 55 H 63.1 C 63,55 63,55 63,55.1 v 0.8 c 0,0.1 0,0.1 0.1,0.1 h 3.5 c 0.1,0 0.1,0 0.1,-0.1 v -0.8 c 0,-0.1 0,-0.1 -0.1,-0.1 h -1.2 v -6.6 h 1.2 c 0.1,0 0.1,0 0.1,-0.1 v -0.8 c 0,-0.1 0,-0.1 -0.1,-0.1 z"
   id="path56" />
	<path
   class="st0"
   d="m 72.6,47.2 c -2.5,0 -4.4,1.9 -4.4,4.5 0,2.6 1.9,4.5 4.4,4.5 2.5,0 4.4,-1.9 4.4,-4.5 0,-2.5 -1.9,-4.5 -4.4,-4.5 z m 0,7.9 c -1.8,0 -3.2,-1.4 -3.2,-3.4 0,-1.9 1.4,-3.4 3.2,-3.4 1.8,0 3.2,1.4 3.2,3.4 0,1.9 -1.4,3.4 -3.2,3.4 z"
   id="path58" />
	<path
   class="st0"
   d="m 84.4,47.4 c -0.1,0 -0.1,0 -0.1,0.1 v 7.3 l -3.7,-7.3 c 0,0 -0.1,-0.1 -0.1,-0.1 h -1.6 c -0.1,0 -0.1,0 -0.1,0.1 v 8.4 c 0,0.1 0,0.1 0.1,0.1 h 1 C 80,56 80,56 80,55.9 v -7.3 l 3.6,7.3 c 0,0 0.1,0.1 0.1,0.1 h 1.6 c 0.1,0 0.1,0 0.1,-0.1 v -8.4 c 0,-0.1 0,-0.1 -0.1,-0.1 z"
   id="path60" />
</g>
</svg>
