<?xml version="1.0" encoding="UTF-8" standalone="no"?>
<!-- Created with Inkscape (http://www.inkscape.org/) -->

<svg
   version="1.1"
   id="svg2"
   width="667.71741"
   height="164.40994"
   viewBox="0 0 667.71741 164.40994"
   sodipodi:docname="eset.svg"
   inkscape:version="1.2.2 (732a01da63, 2022-12-09)"
   xmlns:inkscape="http://www.inkscape.org/namespaces/inkscape"
   xmlns:sodipodi="http://sodipodi.sourceforge.net/DTD/sodipodi-0.dtd"
   xmlns="http://www.w3.org/2000/svg"
   xmlns:svg="http://www.w3.org/2000/svg">
  <defs
     id="defs6">
    <clipPath
       clipPathUnits="userSpaceOnUse"
       id="clipPath18">
      <path
         d="M 0,226.771 H 651.969 V 0 H 0 Z"
         id="path16" />
    </clipPath>
  </defs>
  <sodipodi:namedview
     id="namedview4"
     pagecolor="#ffffff"
     bordercolor="#000000"
     borderopacity="0.25"
     inkscape:showpageshadow="2"
     inkscape:pageopacity="0.0"
     inkscape:pagecheckerboard="0"
     inkscape:deskcolor="#d1d1d1"
     showgrid="false"
     inkscape:zoom="0.58851544"
     inkscape:cx="-190.30936"
     inkscape:cy="53.524509"
     inkscape:window-width="1920"
     inkscape:window-height="991"
     inkscape:window-x="-9"
     inkscape:window-y="-9"
     inkscape:window-maximized="1"
     inkscape:current-layer="g10">
    <inkscape:page
       x="0"
       y="0"
       id="page8"
       width="667.71741"
       height="164.40994" />
  </sodipodi:namedview>
  <g
     id="g10"
     inkscape:groupmode="layer"
     inkscape:label="Page 1"
     transform="matrix(1.3333333,0,0,-1.3333333,-77.336501,231.71829)">
    <g
       id="g12">
      <g
         id="g14"
         clip-path="url(#clipPath18)">
        <g
           id="g20"
           transform="translate(127.3818,73.0605)">
          <path
             d="m 0,0 c -3.107,1.467 -6.672,2.638 -10.607,3.933 -6.903,2.266 -14.727,4.841 -21.354,9.599 -7.316,5.254 -12.053,12.482 -14.478,22.084 -1.924,7.618 -1.832,23.344 2.691,31.639 1.951,3.581 5.016,6.415 9.113,8.418 4.494,2.196 9.981,3.308 16.311,3.308 5.146,0 10.676,-0.748 16.449,-2.224 L 0,76.278 c 0,0 1.9,-12.919 1.9,-34.214 C 1.9,16.513 0,0 0,0 M 50.4,70.878 C 44.939,80.901 33.373,86.555 18.316,86.555 12.658,86.555 6.51,85.757 0,84.094 c -6.508,1.663 -12.66,2.461 -18.316,2.461 -15.059,0.003 -26.62,-5.654 -32.08,-15.677 -5.737,-10.523 -5.616,-28.277 -3.385,-37.113 8.797,-34.804 41.842,-34.448 53.357,-42.171 h 0.85 c 11.515,7.723 44.564,7.367 53.357,42.171 2.227,8.836 2.352,26.59 -3.383,37.113"
             style="fill:#ffffff;fill-opacity:1;fill-rule:nonzero;stroke:none"
             id="path22" />
        </g>
        <g
           id="g24"
           transform="translate(182.3428,155.0088)">
          <path
             d="m 0,0 c 0.699,0 1.076,0.188 1.076,0.82 0,0.563 -0.285,0.778 -0.9,0.778 H -0.4 V 0 Z M 1.088,-1.961 C 0.887,-1.758 0.445,-1.116 0.268,-0.888 0.191,-0.901 0.057,-0.901 -0.037,-0.901 H -0.4 v -1.8 h -1.141 v 5.196 h 1.852 c 1.087,0 1.96,-0.374 1.96,-1.636 0,-0.725 -0.375,-1.179 -0.898,-1.41 0.457,-0.579 0.779,-1.171 1.514,-1.41 L 2.674,-2.77 c -0.59,0.042 -1.104,0.26 -1.586,0.809 m 2.914,1.742 c 0,2.274 -1.342,3.953 -3.691,3.953 -2.444,0 -3.735,-1.679 -3.735,-3.922 0,-2.162 1.235,-4.003 3.654,-4.003 2.522,0 3.772,1.716 3.772,3.972 m -8.457,0.018 c 0,2.992 2.002,4.792 4.875,4.792 3.059,0 4.619,-2.066 4.619,-4.82 0,-2.915 -1.842,-4.822 -4.848,-4.822 -2.957,0 -4.646,1.975 -4.646,4.85"
             style="fill:#ffffff;fill-opacity:1;fill-rule:nonzero;stroke:none"
             id="path26" />
        </g>
        <g
           id="g28"
           transform="translate(246.1992,134.9277)">
          <path
             d="M 0,0 C -1.111,-0.483 -1.981,-1.836 -1.981,-3.334 V -30.541 L -7.2,-31.942 -26.385,-5.268 h -0.339 l 0.29,-3.866 v -8.505 l 0.145,-7.49 c 0,-1.159 0.097,-1.498 1.16,-1.836 l 4.108,-1.208 c 0,-0.435 -0.048,-2.127 -0.242,-2.658 h -14.159 c -0.144,0.725 -0.241,1.933 -0.193,2.561 l 2.465,0.725 c 1.498,0.387 2.27,2.368 2.319,4.204 l 0.097,5.702 v 14.884 c 0,1.064 -0.58,2.03 -1.402,2.465 l -2.948,1.305 c 0,0.435 -0.048,1.788 0.097,2.319 h 10.679 l 18.075,-24.742 h 0.337 l -0.337,5.074 v 12.951 c 0,1.498 -0.823,2.61 -1.788,3.093 l -3.045,1.305 c 0,0.435 0,1.788 0.193,2.319 H 2.368 C 2.465,2.609 2.562,1.739 2.562,1.111 Z"
             style="fill:#ffffff;fill-opacity:1;fill-rule:nonzero;stroke:none"
             id="path30" />
        </g>
        <g
           id="g32"
           transform="translate(264.4189,115.6465)">
          <path
             d="m 0,0 c -0.435,-0.049 -2.368,-0.242 -3.914,-0.532 -2.852,-0.579 -4.591,-1.643 -4.591,-3.818 0,-1.401 0.918,-2.464 2.948,-2.464 2.03,0 4.784,1.16 5.557,1.45 z m 4.784,-11.937 c -3.576,0 -4.445,1.354 -4.638,4.157 -1.402,-1.45 -4.543,-4.204 -8.41,-4.204 -4.058,0 -6.91,1.932 -6.91,6.088 0,5.75 5.122,7.829 10.1,8.553 2.127,0.29 4.253,0.532 5.074,0.58 v 3.045 c 0,2.706 -1.208,3.865 -5.46,3.865 -1.74,0 -4.205,-0.337 -6.862,-1.014 l -1.16,4.591 c 3.189,1.208 6.282,1.74 9.327,1.74 4.058,0.048 10.679,-0.146 10.679,-7.297 V 1.643 L 6.862,-7.2 h 4.06 L 11.26,-9.278 C 9.714,-10.68 6.669,-11.937 4.784,-11.937"
             style="fill:#ffffff;fill-opacity:1;fill-rule:nonzero;stroke:none"
             id="path34" />
        </g>
        <g
           id="g36"
           transform="translate(295.3486,126.5195)">
          <path
             d="m 0,0 c -1.063,0.241 -2.417,0.531 -4.35,0.531 -5.025,0 -6.523,-4.253 -6.523,-10.196 0,-5.315 2.175,-7.732 5.992,-7.732 1.788,0 3.237,0.483 4.688,1.16 L 0,-8.892 Z m 2.996,-22.81 c -2.465,0 -3.142,2.223 -3.142,3.963 -1.642,-1.884 -3.866,-3.914 -7.151,-3.914 -5.22,0 -10.487,2.223 -10.487,12.516 0,8.891 5.992,14.4 13.58,14.4 1.836,0 3.044,-0.096 4.204,-0.241 v 6.427 h -4.494 v 3.141 c 2.609,0.532 6.233,1.015 8.505,1.015 1.885,0 2.512,-0.483 2.512,-2.416 V -8.94 l 0.194,-9.085 h 3.914 l 0.483,-2.416 C 9.036,-21.602 6.572,-22.81 2.996,-22.81"
             style="fill:#ffffff;fill-opacity:1;fill-rule:nonzero;stroke:none"
             id="path38" />
        </g>
        <g
           id="g40"
           transform="translate(328.2109,140.8232)">
          <path
             d="m 0,0 c -4.107,-3.044 -7.346,-5.219 -11.646,-7.152 l -1.643,2.513 c 4.06,2.851 6.669,5.219 9.906,8.553 z m -4.978,-25.177 c -0.434,-0.049 -2.368,-0.242 -3.914,-0.532 -2.851,-0.579 -4.59,-1.643 -4.59,-3.817 0,-1.402 0.918,-2.465 2.948,-2.465 2.029,0 4.783,1.16 5.556,1.45 z m 4.785,-11.936 c -3.577,0 -4.446,1.353 -4.639,4.156 -1.401,-1.45 -4.543,-4.204 -8.409,-4.204 -4.059,0 -6.91,1.932 -6.91,6.089 0,5.75 5.122,7.828 10.099,8.552 2.127,0.291 4.253,0.533 5.074,0.581 v 3.044 c 0,2.707 -1.208,3.866 -5.46,3.866 -1.74,0 -4.205,-0.338 -6.862,-1.015 l -1.16,4.591 c 3.189,1.208 6.282,1.74 9.327,1.74 4.059,0.048 10.68,-0.145 10.68,-7.297 v -6.524 l 0.338,-8.843 h 4.059 l 0.338,-2.078 c -1.546,-1.401 -4.591,-2.658 -6.475,-2.658"
             style="fill:#ffffff;fill-opacity:1;fill-rule:nonzero;stroke:none"
             id="path42" />
        </g>
        <g
           id="g44"
           transform="translate(356.0952,122.46)">
          <path
             d="m 0,0 c -2.174,2.416 -4.156,4.543 -6.959,4.543 -3.334,0 -6.039,-2.658 -6.039,-9.085 0,-5.944 2.56,-9.183 8.021,-9.183 1.981,0 4.301,0.436 6.331,0.823 l 1.111,-3.48 c -2.223,-1.45 -5.123,-2.561 -9.52,-2.561 -9.326,0 -12.709,4.88 -12.709,12.516 0,9.326 5.075,15.077 14.303,15.077 3.383,0 8.264,-0.918 8.264,-4.59 C 2.803,2.562 1.934,0.821 0,0"
             style="fill:#ffffff;fill-opacity:1;fill-rule:nonzero;stroke:none"
             id="path46" />
        </g>
        <g
           id="g48"
           transform="translate(365.0366,139.084)">
          <path
             d="M 0,0 C 0,1.015 3.334,4.252 4.254,4.252 5.025,4.252 8.555,0.869 8.555,0 8.555,-0.677 5.219,-4.253 4.254,-4.253 3.287,-4.253 0,-0.822 0,0 m -3.285,-32.281 2.947,0.918 c 0.869,0.242 1.305,1.111 1.305,2.127 l 0.144,7.441 v 9.521 h -4.445 v 3.14 c 2.609,0.58 6.428,1.064 8.699,1.064 1.545,0 2.319,-0.436 2.319,-2.127 v -11.598 l 0.097,-7.78 c 0.047,-1.208 0.289,-1.595 0.821,-1.739 l 3.576,-0.871 c 0,-0.918 -0.047,-2.029 -0.289,-2.802 H -3.092 c -0.146,0.676 -0.193,1.594 -0.193,2.706"
             style="fill:#ffffff;fill-opacity:1;fill-rule:nonzero;stroke:none"
             id="path50" />
        </g>
        <g
           id="g52"
           transform="translate(394.0801,115.6465)">
          <path
             d="m 0,0 c -0.434,-0.049 -2.367,-0.242 -3.914,-0.532 -2.852,-0.579 -4.59,-1.643 -4.59,-3.818 0,-1.401 0.918,-2.464 2.947,-2.464 2.03,0 4.784,1.16 5.557,1.45 z m 4.785,-11.937 c -3.576,0 -4.445,1.354 -4.639,4.157 -1.402,-1.45 -4.542,-4.204 -8.41,-4.204 -4.058,0 -6.91,1.932 -6.91,6.088 0,5.75 5.123,7.829 10.1,8.553 2.127,0.29 4.254,0.532 5.074,0.58 v 3.045 c 0,2.706 -1.207,3.865 -5.461,3.865 -1.738,0 -4.203,-0.337 -6.861,-1.014 l -1.161,4.591 c 3.19,1.208 6.284,1.74 9.329,1.74 4.058,0.048 10.679,-0.146 10.679,-7.297 V 1.643 L 6.863,-7.2 h 4.059 L 11.26,-9.278 C 9.715,-10.68 6.67,-11.937 4.785,-11.937"
             style="fill:#ffffff;fill-opacity:1;fill-rule:nonzero;stroke:none"
             id="path54" />
        </g>
        <g
           id="g56"
           transform="translate(447.4805,104.0967)">
          <path
             d="m 0,0 h -27.545 c -0.193,0.967 -0.24,2.029 -0.193,2.852 l 2.513,0.627 c 1.112,0.291 2.03,1.015 2.03,2.079 l 0.144,7.924 v 14.401 c 0,1.595 -0.578,2.127 -1.351,2.417 l -3.045,1.256 v 1.208 c 0.049,0.532 0.049,0.966 0.242,1.401 H -0.676 V 26.24 c -0.822,-0.144 -2.32,-0.193 -3.045,-0.193 -0.627,3.045 -1.836,3.963 -3.963,3.963 l -8.601,0.241 V 19.137 l 13.096,0.241 v -4.445 l -13.096,0.241 v -1.739 l 0.242,-9.521 7.297,0.193 c 3.48,0.097 5.848,1.595 7.008,4.785 L 1.209,8.264 Z"
             style="fill:#ffffff;fill-opacity:1;fill-rule:nonzero;stroke:none"
             id="path58" />
        </g>
        <g
           id="g60"
           transform="translate(464.252,103.5654)">
          <path
             d="m 0,0 c -3.432,0 -8.313,0.772 -11.551,2.561 l 0.727,8.505 h 3.14 c 0.387,-4.59 4.157,-7.201 8.651,-7.201 3.623,0 6.33,1.16 6.33,4.302 0,2.657 -3.238,3.914 -7.152,5.557 -4.688,1.981 -10.245,4.639 -10.245,10.631 0,6.137 5.993,10.728 12.565,10.728 3.14,0 7.635,-0.725 10.437,-2.126 v -7.539 h -2.707 c -0.82,3.722 -4.445,5.654 -7.972,5.654 -3.286,0 -5.993,-1.256 -5.993,-4.107 0,-2.706 2.707,-3.866 7.442,-5.848 C 8.697,18.991 14.305,16.575 14.305,10.341 14.305,3.093 6.717,0 0,0"
             style="fill:#ffffff;fill-opacity:1;fill-rule:nonzero;stroke:none"
             id="path62" />
        </g>
        <g
           id="g64"
           transform="translate(509.8223,104.0967)">
          <path
             d="m 0,0 h -27.545 c -0.193,0.967 -0.24,2.029 -0.193,2.852 l 2.513,0.627 c 1.112,0.291 2.03,1.015 2.03,2.079 l 0.144,7.924 v 14.401 c 0,1.595 -0.578,2.127 -1.351,2.417 l -3.045,1.256 v 1.208 c 0.049,0.532 0.049,0.966 0.242,1.401 H -0.676 V 26.24 c -0.822,-0.144 -2.32,-0.193 -3.045,-0.193 -0.627,3.045 -1.836,3.963 -3.963,3.963 l -8.601,0.241 V 19.137 l 13.096,0.241 v -4.445 l -13.096,0.241 v -1.739 l 0.242,-9.521 7.297,0.193 c 3.48,0.097 5.848,1.595 7.008,4.785 L 1.209,8.264 Z"
             style="fill:#ffffff;fill-opacity:1;fill-rule:nonzero;stroke:none"
             id="path66" />
        </g>
        <g
           id="g68"
           transform="translate(544.6172,129.3223)">
          <path
             d="m 0,0 c -0.627,-0.193 -2.223,-0.242 -2.754,-0.146 -0.58,2.997 -1.885,4.785 -4.543,4.93 l -5.605,0.194 v -17.011 l 0.242,-7.684 c 0,-1.111 0.096,-1.546 1.015,-1.739 l 4.301,-0.87 c 0,-0.435 -0.049,-2.368 -0.193,-2.9 h -17.35 c -0.144,0.725 -0.242,2.272 -0.193,2.9 l 3.287,0.918 c 1.111,0.339 1.932,2.03 1.98,3.335 l 0.145,6.04 V 4.978 L -25.707,4.784 C -28.076,4.688 -29.188,2.657 -29.719,-0.146 -30.154,-0.29 -31.893,-0.193 -32.521,0 V 8.939 H 0 Z"
             style="fill:#ffffff;fill-opacity:1;fill-rule:nonzero;stroke:none"
             id="path70" />
        </g>
      </g>
    </g>
  </g>
</svg>
