<?xml version="1.0" encoding="UTF-8" standalone="no"?>
<svg
   width="468.7312"
   height="78.681633"
   xml:space="preserve"
   overflow="hidden"
   version="1.1"
   id="svg24"
   sodipodi:docname="gamca.svg"
   inkscape:version="1.2.2 (732a01da63, 2022-12-09)"
   xmlns:inkscape="http://www.inkscape.org/namespaces/inkscape"
   xmlns:sodipodi="http://sodipodi.sourceforge.net/DTD/sodipodi-0.dtd"
   xmlns="http://www.w3.org/2000/svg"
   xmlns:svg="http://www.w3.org/2000/svg"><defs
     id="defs28" /><sodipodi:namedview
     id="namedview26"
     pagecolor="#ffffff"
     bordercolor="#000000"
     borderopacity="0.25"
     inkscape:showpageshadow="2"
     inkscape:pageopacity="0.0"
     inkscape:pagecheckerboard="0"
     inkscape:deskcolor="#d1d1d1"
     showgrid="false"
     inkscape:zoom="1.7987804"
     inkscape:cx="239.60679"
     inkscape:cy="43.64068"
     inkscape:window-width="1920"
     inkscape:window-height="991"
     inkscape:window-x="-9"
     inkscape:window-y="1304"
     inkscape:window-maximized="1"
     inkscape:current-layer="svg24" /><g
     transform="translate(-89.1058,-67.414351)"
     id="g22"><path
       d="m 0,0 h -23.4974 v -9.47073 h 10.8693 l -0.0456,-11.90787 c -0.3314,-0.3901 -0.8194,-0.7594 -1.4652,-1.1051 -0.6471,-0.3457 -1.3921,-0.6536 -2.2323,-0.9237 -0.8429,-0.2714 -1.7444,-0.4814 -2.7073,-0.6315 -0.9615,-0.1513 -1.9387,-0.2257 -2.9316,-0.2257 -4.1489,0.03 -7.2306,1.6752 -9.245,4.9382 -2.0145,3.2631 -3.0373,7.9613 -3.0673,14.0946 v 9.02062 c 0,3.09602 0.3,5.82543 0.9028,8.18558 0.6002,2.3602 1.4117,4.3368 2.4345,5.9311 1.0216,1.5931 2.2245,2.8025 3.6088,3.631 1.3817,0.8259 2.886,1.2394 4.5103,1.2394 3.3661,0 5.8555,-0.8493 7.4642,-2.548 1.6073,-1.6987 2.6224,-4.2324 3.0438,-7.5998 H 0 c -0.331391,3.1573 -1.0307,5.9989 -2.09663,8.5248 -1.06854,2.5259 -2.54937,4.6682 -4.44247,6.4269 -1.89441,1.7587 -4.2181,3.1039 -6.9683,4.0367 -2.7516,0.9316 -5.9768,1.3973 -9.6743,1.3973 -3.3987,0 -6.5482,-0.6614 -9.4499,-1.9844 -2.9016,-1.3229 -5.4275,-3.2474 -7.5763,-5.7719 -2.1501,-2.5259 -3.8332,-5.6011 -5.0517,-9.2242 -1.2173,-3.6231 -1.8266,-7.73418 -1.8266,-12.33451 V -5.2318 c 0,-4.60033 0.5793,-8.7127 1.7365,-12.3358 1.1573,-3.6232 2.8038,-6.6826 4.9383,-9.1772 2.1344,-2.4972 4.706,-4.4059 7.7133,-5.7289 3.006,-1.3216 6.3734,-1.9844 10.1022,-1.9844 2.7659,0 5.3518,0.2557 7.7577,0.7671 2.4045,0.5115 4.5781,1.1795 6.5169,2.0066 1.94007,0.8272 3.61529,1.7522 5.02957,2.7738 1.41167,1.0229 2.524573,2.0301 3.3373941,3.023 z"
       fill="#ffffff"
       transform="matrix(1,0,0,-1.00091,136.192,111.561)"
       id="path2" /><path
       d="M 0,0 13.8467,14.1167 27.692,0 35.134,7.39628 21.1973,21.603 35.134,35.8111 27.692,43.2074 13.8467,29.0906 0,43.2074 -7.44194,35.8111 6.49474,21.603 -7.44194,7.39628 Z"
       fill="#d8b129"
       transform="matrix(1,0,0,-1.00091,151.442,135.088)"
       id="path4" /><path
       d="M 0,0 -21.1073,65.6676 H -32.6081 L -54.1211,0 h 13.3496 l 3.8788,13.711 h 19.7086 L -13.3496,0 Z m -20.16,24.4903 h -13.621 l 6.9005,24.1746 z"
       fill="#ffffff"
       transform="matrix(1,0,0,-1.00091,244.039,145.143)"
       id="path6" /><path
       d="m 225.028,635.905 h -42.666 v 10.283 h 42.666 z"
       fill="#d8b129"
       transform="matrix(1,0,0,1.00091,67,-537.554)"
       id="path8" /><path
       d="m 225.028,655.389 h -42.666 v 10.238 h 42.666 z"
       fill="#d8b129"
       transform="matrix(1,0,0,1.00091,67,-537.554)"
       id="path10" /><path
       d="m 0,0 v -65.6676 h 11.6365 v 19.4386 l -0.5414,29.4964 7.712,-27.2863 h 6.269 L 33.691,-15.5154 33.1495,-46.229 V -65.6676 H 44.786 V 0 H 29.045 L 21.9644,-24.6704 15.7411,0 Z"
       fill="#ffffff"
       transform="matrix(1,0,0,-1.00091,303.394,79.4153)"
       id="path12" /><path
       d="m 0,0 h -11.9523 v -17.7699 h -16.5525 v -11.4564 h 16.5525 V -47.8077 H 0 v 18.5814 h 16.5069 v 11.4564 H 0 Z"
       fill="#d8b129"
       transform="matrix(1,0,0,-1.00091,386.066,89.2788)"
       id="path14" /><path
       d="M 0,0 C -1.37123,0.498391 -2.84161,0.871532 -4.40332,1.12725 L 7.99513,11.7239 v 0.8572 H -2.69288 L -9.3233,6.89789 -15.9081,12.5811 H -26.5974 V 11.6783 L -14.1898,1.11551 c -1.9557,-0.349658 -3.8058,-0.90676 -5.5201,-1.7248 -2.9917,-1.42863 -5.5397,-3.43524 -7.6442,-6.02114 -2.1045,-2.58589 -3.7288,-5.68187 -4.8704,-9.29067 -1.1442,-3.6075 -1.7144,-7.592 -1.7144,-11.9523 v -8.8392 c 0,-4.3303 0.5415,-8.2992 1.6231,-11.9066 1.0829,-3.6088 2.6459,-6.6983 4.6916,-9.2685 2.0432,-2.5716 4.569,-4.5704 7.5764,-5.999 3.006,-1.4273 6.4503,-2.1423 10.32787,-2.1423 3.42872,0 6.55476,0.5036 9.382016,1.5108 2.825954,1.0073 5.260504,2.4424 7.306254,4.3081 2.04445,1.8631 3.67526,4.1189 4.89386,6.7648 1.2173,2.6459 1.931,5.6219 2.1423,8.9293 H 1.33078 c -0.21136,-3.9388 -1.2785925,-6.787 -3.20301,-8.5457 -1.92441,-1.7587 -4.54031,-2.6394 -7.8477,-2.6394 -3.93887,0 -6.81697,1.5487 -8.63577,4.646 -1.82,3.0961 -2.7294,7.8777 -2.7294,14.3425 v 8.9306 c 0,3.006 0.2257,5.6897 0.6772,8.0499 0.4501,2.3602 1.1494,4.3524 2.0966,5.9768 0.9472,1.623 2.1423,2.8559 3.5853,3.6975 1.4443,0.84148 3.1417,1.26289 5.0974,1.26289 1.86309,0 3.46395,-0.24789 4.80256,-0.74367 1.3373,-0.49712 2.4502,-1.23422 3.33739,-2.21012 0.887189,-0.9772 1.5630172,-2.2036 2.030096,-3.6766 0.465774,-1.473 0.759324,-3.1874 0.879364,-5.1405 H 14.0489 c -0.3001,3.4274 -1.0229,6.5091 -2.1645,9.245 -1.1429,2.73595 -2.70592,5.05177 -4.69035,6.94618 C 5.20962,-2.48021 2.8116,-1.02288 0,0"
       fill="#ffffff"
       transform="matrix(1,0,0,-1.00091,446.027,80.0069)"
       id="path16" /><path
       d="m 436.658,644.72 h -38.769 v 10.631 h 38.769 z"
       fill="#d8b129"
       transform="matrix(1,0,0,1.00091,67,-537.554)"
       id="path18" /><path
       d="M 0,0 -21.1073,65.6676 H -32.6081 L -54.1224,0 h 13.3509 l 3.8788,13.711 h 19.7086 L -13.3509,0 Z m -20.16,24.4903 h -13.621 l 6.9005,24.1746 z"
       fill="#ffffff"
       transform="matrix(1,0,0,-1.00091,557.837,145.143)"
       id="path20" /></g></svg>
