<svg width="513" height="147" xmlns="http://www.w3.org/2000/svg" xmlns:xlink="http://www.w3.org/1999/xlink" xml:space="preserve" overflow="hidden"><g transform="translate(-67 -42)"><path d="M0 0-23.4974 0-23.4974-9.47073-12.6281-9.47073-12.6737-21.3786C-13.0051-21.7687-13.4931-22.138-14.1389-22.4837-14.786-22.8294-15.531-23.1373-16.3712-23.4074-17.2141-23.6788-18.1156-23.8888-19.0785-24.0389-20.04-24.1902-21.0172-24.2646-22.0101-24.2646-26.159-24.2346-29.2407-22.5894-31.2551-19.3264-33.2696-16.0633-34.2924-11.3651-34.3224-5.2318L-34.3224 3.78882C-34.3224 6.88484-34.0224 9.61425-33.4196 11.9744-32.8194 14.3346-32.0079 16.3112-30.9851 17.9055-29.9635 19.4986-28.7606 20.708-27.3763 21.5365-25.9946 22.3624-24.4903 22.7759-22.866 22.7759-19.4999 22.7759-17.0105 21.9266-15.4018 20.2279-13.7945 18.5292-12.7794 15.9955-12.358 12.6281L-4.63518e-15 12.6281C-0.331391 15.7854-1.0307 18.627-2.09663 21.1529-3.16517 23.6788-4.646 25.8211-6.5391 27.5798-8.43351 29.3385-10.7572 30.6837-13.5074 31.6165-16.259 32.5481-19.4842 33.0138-23.1817 33.0138-26.5804 33.0138-29.7299 32.3524-32.6316 31.0294-35.5332 29.7065-38.0591 27.782-40.2079 25.2575-42.358 22.7316-44.0411 19.6564-45.2596 16.0333-46.4769 12.4102-47.0862 8.29912-47.0862 3.69879L-47.0862-5.2318C-47.0862-9.83213-46.5069-13.9445-45.3497-17.5676-44.1924-21.1908-42.5459-24.2502-40.4114-26.7448-38.277-29.242-35.7054-31.1507-32.6981-32.4737-29.6921-33.7953-26.3247-34.4581-22.5959-34.4581-19.83-34.4581-17.2441-34.2024-14.8382-33.691-12.4337-33.1795-10.2601-32.5115-8.3213-31.6844-6.38123-30.8572-4.70601-29.9322-3.29173-28.9106-1.88006-27.8877-0.767157-26.8805 0.0456641-25.8876L0 0Z" fill="#FFFFFF" transform="matrix(1 0 0 -1.00091 136.192 111.561)"/><path d="M0 0 13.8467 14.1167 27.692 0 35.134 7.39628 21.1973 21.603 35.134 35.8111 27.692 43.2074 13.8467 29.0906 0 43.2074-7.44194 35.8111 6.49474 21.603-7.44194 7.39628 0 0Z" fill="#D8B129" transform="matrix(1 0 0 -1.00091 151.442 135.088)"/><path d="M0 0-21.1073 65.6676-32.6081 65.6676-54.1211 0-40.7715 0-36.8927 13.711-17.1841 13.711-13.3496 0 0 0ZM-20.16 24.4903-33.781 24.4903-26.8805 48.6649-20.16 24.4903Z" fill="#FFFFFF" transform="matrix(1 0 0 -1.00091 244.039 145.143)"/><path d="M225.028 635.905 182.362 635.905 182.362 646.188 225.028 646.188 225.028 635.905Z" fill="#D8B129" transform="matrix(1 0 0 1.00091 67 -537.554)"/><path d="M225.028 655.389 182.362 655.389 182.362 665.627 225.028 665.627 225.028 655.389Z" fill="#D8B129" transform="matrix(1 0 0 1.00091 67 -537.554)"/><path d="M0 0 0-65.6676 11.6365-65.6676 11.6365-46.229 11.0951-16.7326 18.8071-44.0189 25.0761-44.0189 33.691-15.5154 33.1495-46.229 33.1495-65.6676 44.786-65.6676 44.786 0 29.045 0 21.9644-24.6704 15.7411 0 0 0Z" fill="#FFFFFF" transform="matrix(1 0 0 -1.00091 303.394 79.4153)"/><path d="M0 0-11.9523 0-11.9523-17.7699-28.5048-17.7699-28.5048-29.2263-11.9523-29.2263-11.9523-47.8077 0-47.8077 0-29.2263 16.5069-29.2263 16.5069-17.7699 0-17.7699 0 0Z" fill="#D8B129" transform="matrix(1 0 0 -1.00091 386.066 89.2788)"/><path d="M0 0C-1.37123 0.498391-2.84161 0.871532-4.40332 1.12725L7.99513 11.7239 7.99513 12.5811-2.69288 12.5811-9.3233 6.89789-15.9081 12.5811-26.5974 12.5811-26.5974 11.6783-14.1898 1.11551C-16.1455 0.765852-17.9956 0.20875-19.7099-0.60929-22.7016-2.03792-25.2496-4.04453-27.3541-6.63043-29.4586-9.21632-31.0829-12.3123-32.2245-15.9211-33.3687-19.5286-33.9389-23.5131-33.9389-27.8734L-33.9389-36.7126C-33.9389-41.0429-33.3974-45.0118-32.3158-48.6192-31.2329-52.228-29.6699-55.3175-27.6242-57.8877-25.581-60.4593-23.0552-62.4581-20.0478-63.8867-17.0418-65.314-13.5975-66.029-9.71993-66.029-6.29121-66.029-3.16517-65.5254-0.337914-64.5182 2.48804-63.5109 4.92259-62.0758 6.96834-60.2101 9.01279-58.347 10.6436-56.0912 11.8622-53.4453 13.0795-50.7994 13.7932-47.8234 14.0045-44.516L1.33078-44.516C1.11942-48.4548 0.0521875-51.303-1.87223-53.0617-3.79664-54.8204-6.41254-55.7011-9.71993-55.7011-13.6588-55.7011-16.5369-54.1524-18.3557-51.0551-20.1757-47.959-21.0851-43.1774-21.0851-36.7126L-21.0851-27.782C-21.0851-24.776-20.8594-22.0923-20.4079-19.7321-19.9578-17.3719-19.2585-15.3797-18.3113-13.7553-17.3641-12.1323-16.169-10.8994-14.726-10.0578-13.2817-9.21632-11.5843-8.79491-9.6286-8.79491-7.76551-8.79491-6.16465-9.0428-4.82604-9.53858-3.48874-10.0357-2.37584-10.7728-1.48865-11.7487-0.601461-12.7259 0.0743672-13.9523 0.541446-15.4253 1.00722-16.8983 1.30077-18.6127 1.42081-20.5658L14.0489-20.5658C13.7488-17.1384 13.026-14.0567 11.8844-11.3208 10.7415-8.58485 9.17848-6.26903 7.19405-4.37462 5.20962-2.48021 2.8116-1.02288 0 0" fill="#FFFFFF" transform="matrix(1 0 0 -1.00091 446.027 80.0069)"/><path d="M436.658 644.72 397.889 644.72 397.889 655.351 436.658 655.351 436.658 644.72Z" fill="#D8B129" transform="matrix(1 0 0 1.00091 67 -537.554)"/><path d="M0 0-21.1073 65.6676-32.6081 65.6676-54.1224 0-40.7715 0-36.8927 13.711-17.1841 13.711-13.3509 0 0 0ZM-20.16 24.4903-33.781 24.4903-26.8805 48.6649-20.16 24.4903Z" fill="#FFFFFF" transform="matrix(1 0 0 -1.00091 557.837 145.143)"/></g></svg>