<?xml version="1.0" encoding="UTF-8" standalone="no"?>
<svg
   width="340.106pt"
   height="137.688pt"
   viewBox="0 0 340.106 137.688"
   version="1.1"
   id="svg86"
   sodipodi:docname="nivam.svg"
   inkscape:version="1.2.2 (b0a8486541, 2022-12-01)"
   xmlns:inkscape="http://www.inkscape.org/namespaces/inkscape"
   xmlns:sodipodi="http://sodipodi.sourceforge.net/DTD/sodipodi-0.dtd"
   xmlns="http://www.w3.org/2000/svg"
   xmlns:svg="http://www.w3.org/2000/svg">
  <defs
     id="defs90" />
  <sodipodi:namedview
     id="namedview88"
     pagecolor="#ffffff"
     bordercolor="#000000"
     borderopacity="0.25"
     inkscape:showpageshadow="2"
     inkscape:pageopacity="0.0"
     inkscape:pagecheckerboard="0"
     inkscape:deskcolor="#d1d1d1"
     inkscape:document-units="pt"
     showgrid="false"
     inkscape:zoom="2.8888054"
     inkscape:cx="222.75644"
     inkscape:cy="92.59883"
     inkscape:window-width="1860"
     inkscape:window-height="1011"
     inkscape:window-x="0"
     inkscape:window-y="0"
     inkscape:window-maximized="1"
     inkscape:current-layer="svg86" />
  <rect
     style="fill:#ffffff;stroke:none;stroke-width:0.75;fill-opacity:1"
     id="rect328"
     width="340.10599"
     height="137.688"
     x="0"
     y="0" />
  <path
     fill-rule="nonzero"
     fill="rgb(3.529358%, 75.294495%, 87.843323%)"
     fill-opacity="1"
     d="M 62.214844 96.304688 C 62.171875 96.304688 62.128906 96.304688 62.085938 96.300781 C 59.6875 96.234375 57.777344 94.269531 57.777344 91.867188 C 57.777344 91.175781 57.785156 90.492188 57.804688 89.808594 C 57.746094 84.460938 56.703125 68.402344 46.757812 57.898438 C 40.484375 51.273438 31.585938 47.914062 20.316406 47.914062 C 17.867188 47.914062 15.882812 45.929688 15.882812 43.476562 C 15.882812 41.027344 17.867188 39.042969 20.316406 39.042969 C 34.148438 39.042969 45.226562 43.351562 53.246094 51.847656 C 57.4375 56.289062 60.332031 61.410156 62.328125 66.472656 C 73.390625 36.621094 100.886719 20.832031 102.339844 20.015625 C 104.472656 18.816406 107.179688 19.574219 108.378906 21.707031 C 109.578125 23.84375 108.824219 26.542969 106.691406 27.746094 C 106.296875 27.96875 68.039062 50.050781 66.683594 89.710938 C 66.695312 91.089844 66.652344 91.949219 66.640625 92.125 C 66.503906 94.476562 64.554688 96.304688 62.214844 96.304688 "
     id="path2" />
  <path
     fill-rule="nonzero"
     fill="rgb(0.392151%, 0.392151%, 0.392151%)"
     fill-opacity="1"
     d="M 28.007812 116.324219 L 28.007812 123.9375 L 27.117188 123.9375 L 22.546875 118.257812 L 22.546875 123.9375 L 21.460938 123.9375 L 21.460938 116.324219 L 22.351562 116.324219 L 26.921875 122 L 26.921875 116.324219 Z M 28.007812 116.324219 "
     id="path4" />
  <path
     fill-rule="nonzero"
     fill="rgb(0.392151%, 0.392151%, 0.392151%)"
     fill-opacity="1"
     d="M 34.386719 115.703125 L 33.40625 115.703125 L 34.886719 114.289062 L 36.210938 114.289062 Z M 35.851562 121.164062 L 34.210938 117.433594 L 32.566406 121.164062 Z M 36.234375 122.03125 L 32.1875 122.03125 L 31.351562 123.9375 L 30.230469 123.9375 L 33.679688 116.324219 L 34.753906 116.324219 L 38.214844 123.9375 L 37.070312 123.9375 Z M 36.234375 122.03125 "
     id="path6" />
  <path
     fill-rule="nonzero"
     fill="rgb(0.392151%, 0.392151%, 0.392151%)"
     fill-opacity="1"
     d="M 45.492188 118.976562 C 45.492188 117.890625 44.765625 117.269531 43.371094 117.269531 L 41.523438 117.269531 L 41.523438 120.695312 L 43.371094 120.695312 C 44.765625 120.695312 45.492188 120.0625 45.492188 118.976562 M 45.527344 123.9375 L 43.882812 121.597656 C 43.730469 121.609375 43.566406 121.621094 43.40625 121.621094 L 41.523438 121.621094 L 41.523438 123.9375 L 40.433594 123.9375 L 40.433594 116.324219 L 43.40625 116.324219 C 45.382812 116.324219 46.582031 117.324219 46.582031 118.976562 C 46.582031 120.148438 45.972656 121 44.90625 121.378906 L 46.710938 123.9375 Z M 45.527344 123.9375 "
     id="path8" />
  <path
     fill-rule="nonzero"
     fill="rgb(0.392151%, 0.392151%, 0.392151%)"
     fill-opacity="1"
     d="M 55.820312 120.128906 C 55.820312 118.441406 54.554688 117.203125 52.871094 117.203125 C 51.164062 117.203125 49.902344 118.441406 49.902344 120.128906 C 49.902344 121.816406 51.164062 123.054688 52.871094 123.054688 C 54.554688 123.054688 55.820312 121.816406 55.820312 120.128906 M 48.816406 120.128906 C 48.816406 117.898438 50.53125 116.234375 52.871094 116.234375 C 55.1875 116.234375 56.90625 117.890625 56.90625 120.128906 C 56.90625 122.371094 55.1875 124.023438 52.871094 124.023438 C 50.53125 124.023438 48.816406 122.359375 48.816406 120.128906 "
     id="path10" />
  <path
     fill-rule="nonzero"
     fill="rgb(0.392151%, 0.392151%, 0.392151%)"
     fill-opacity="1"
     d="M 62.804688 122.988281 C 64.6875 122.988281 65.894531 121.835938 65.894531 120.128906 C 65.894531 118.421875 64.6875 117.269531 62.804688 117.269531 L 60.75 117.269531 L 60.75 122.988281 Z M 59.660156 116.320312 L 62.871094 116.320312 C 65.316406 116.320312 66.984375 117.867188 66.984375 120.128906 C 66.984375 122.390625 65.316406 123.9375 62.871094 123.9375 L 59.660156 123.9375 Z M 59.660156 116.320312 "
     id="path12" />
  <path
     fill-rule="nonzero"
     fill="rgb(0.392151%, 0.392151%, 0.392151%)"
     fill-opacity="1"
     d="M 76.285156 116.324219 L 76.285156 123.9375 L 75.394531 123.9375 L 70.824219 118.257812 L 70.824219 123.9375 L 69.738281 123.9375 L 69.738281 116.324219 L 70.628906 116.324219 L 75.199219 122 L 75.199219 116.324219 Z M 76.285156 116.324219 "
     id="path14" />
  <path
     fill-rule="nonzero"
     fill="rgb(0.392151%, 0.392151%, 0.392151%)"
     fill-opacity="1"
     d="M 82.207031 115.703125 L 81.226562 115.703125 L 82.707031 114.289062 L 84.03125 114.289062 Z M 82.574219 121.304688 L 82.574219 123.9375 L 81.5 123.9375 L 81.5 121.28125 L 78.476562 116.324219 L 79.640625 116.324219 L 82.074219 120.335938 L 84.523438 116.324219 L 85.597656 116.324219 Z M 82.574219 121.304688 "
     id="path16" />
  <path
     fill-rule="nonzero"
     fill="rgb(0.392151%, 0.392151%, 0.392151%)"
     fill-opacity="1"
     d="M 91.804688 116.324219 L 92.890625 116.324219 L 92.890625 123.9375 L 91.804688 123.9375 Z M 91.804688 116.324219 "
     id="path18" />
  <path
     fill-rule="nonzero"
     fill="rgb(0.392151%, 0.392151%, 0.392151%)"
     fill-opacity="1"
     d="M 102.8125 116.324219 L 102.8125 123.9375 L 101.921875 123.9375 L 97.351562 118.257812 L 97.351562 123.9375 L 96.265625 123.9375 L 96.265625 116.324219 L 97.15625 116.324219 L 101.726562 122 L 101.726562 116.324219 Z M 102.8125 116.324219 "
     id="path20" />
  <path
     fill-rule="nonzero"
     fill="rgb(0.392151%, 0.392151%, 0.392151%)"
     fill-opacity="1"
     d="M 108.046875 115.703125 L 106.601562 114.289062 L 107.546875 114.289062 L 108.546875 115.113281 L 109.546875 114.289062 L 110.496094 114.289062 L 109.046875 115.703125 Z M 111.355469 121.859375 C 111.355469 123.023438 110.417969 124.023438 108.40625 124.023438 C 107.242188 124.023438 106.101562 123.628906 105.492188 123.066406 L 105.894531 122.21875 C 106.460938 122.730469 107.425781 123.097656 108.40625 123.097656 C 109.722656 123.097656 110.289062 122.585938 110.289062 121.921875 C 110.289062 120.066406 105.675781 121.238281 105.675781 118.410156 C 105.675781 117.238281 106.589844 116.234375 108.589844 116.234375 C 109.484375 116.234375 110.40625 116.476562 111.039062 116.910156 L 110.679688 117.78125 C 110.015625 117.355469 109.265625 117.160156 108.589844 117.160156 C 107.296875 117.160156 106.742188 117.703125 106.742188 118.367188 C 106.742188 120.226562 111.355469 119.0625 111.355469 121.859375 "
     id="path22" />
  <path
     fill-rule="nonzero"
     fill="rgb(0.392151%, 0.392151%, 0.392151%)"
     fill-opacity="1"
     d="M 115.4375 117.269531 L 112.824219 117.269531 L 112.824219 116.324219 L 119.121094 116.324219 L 119.121094 117.269531 L 116.511719 117.269531 L 116.511719 123.9375 L 115.4375 123.9375 Z M 115.4375 117.269531 "
     id="path24" />
  <path
     fill-rule="nonzero"
     fill="rgb(0.392151%, 0.392151%, 0.392151%)"
     fill-opacity="1"
     d="M 121.398438 116.324219 L 122.488281 116.324219 L 122.488281 123.9375 L 121.398438 123.9375 Z M 121.398438 116.324219 "
     id="path26" />
  <path
     fill-rule="nonzero"
     fill="rgb(0.392151%, 0.392151%, 0.392151%)"
     fill-opacity="1"
     d="M 127.371094 117.269531 L 124.761719 117.269531 L 124.761719 116.324219 L 131.058594 116.324219 L 131.058594 117.269531 L 128.449219 117.269531 L 128.449219 123.9375 L 127.371094 123.9375 Z M 127.371094 117.269531 "
     id="path28" />
  <path
     fill-rule="nonzero"
     fill="rgb(0.392151%, 0.392151%, 0.392151%)"
     fill-opacity="1"
     d="M 137.023438 114.289062 L 138.347656 114.289062 L 136.523438 115.703125 L 135.542969 115.703125 Z M 133.128906 120.652344 L 133.128906 116.324219 L 134.214844 116.324219 L 134.214844 120.609375 C 134.214844 122.292969 134.988281 123.054688 136.359375 123.054688 C 137.730469 123.054688 138.511719 122.292969 138.511719 120.609375 L 138.511719 116.324219 L 139.566406 116.324219 L 139.566406 120.652344 C 139.566406 122.859375 138.359375 124.023438 136.347656 124.023438 C 134.347656 124.023438 133.128906 122.859375 133.128906 120.652344 "
     id="path30" />
  <path
     fill-rule="nonzero"
     fill="rgb(0.392151%, 0.392151%, 0.392151%)"
     fill-opacity="1"
     d="M 144.257812 117.269531 L 141.648438 117.269531 L 141.648438 116.324219 L 147.945312 116.324219 L 147.945312 117.269531 L 145.335938 117.269531 L 145.335938 123.9375 L 144.257812 123.9375 Z M 144.257812 117.269531 "
     id="path32" />
  <path
     fill-rule="nonzero"
     fill="rgb(0.392151%, 0.392151%, 0.392151%)"
     fill-opacity="1"
     d="M 160.851562 116.324219 L 157.511719 123.9375 L 156.433594 123.9375 L 153.085938 116.324219 L 154.257812 116.324219 L 157 122.578125 L 159.761719 116.324219 Z M 160.851562 116.324219 "
     id="path34" />
  <path
     fill-rule="nonzero"
     fill="rgb(0.392151%, 0.392151%, 0.392151%)"
     fill-opacity="1"
     d="M 168.652344 122.988281 L 168.652344 123.9375 L 162.289062 123.9375 L 162.289062 123.195312 L 167.074219 117.269531 L 162.363281 117.269531 L 162.363281 116.320312 L 168.511719 116.320312 L 168.511719 117.0625 L 163.746094 122.988281 Z M 168.652344 122.988281 "
     id="path36" />
  <path
     fill-rule="nonzero"
     fill="rgb(0.392151%, 0.392151%, 0.392151%)"
     fill-opacity="1"
     d="M 174.34375 122.988281 C 176.226562 122.988281 177.433594 121.835938 177.433594 120.128906 C 177.433594 118.421875 176.226562 117.269531 174.34375 117.269531 L 172.289062 117.269531 L 172.289062 122.988281 Z M 171.199219 116.320312 L 174.410156 116.320312 C 176.855469 116.320312 178.519531 117.867188 178.519531 120.128906 C 178.519531 122.390625 176.855469 123.9375 174.410156 123.9375 L 171.199219 123.9375 Z M 171.199219 116.320312 "
     id="path38" />
  <path
     fill-rule="nonzero"
     fill="rgb(0.392151%, 0.392151%, 0.392151%)"
     fill-opacity="1"
     d="M 186.800781 122.988281 L 186.800781 123.9375 L 181.277344 123.9375 L 181.277344 116.320312 L 186.648438 116.320312 L 186.648438 117.269531 L 182.363281 117.269531 L 182.363281 119.605469 L 186.179688 119.605469 L 186.179688 120.53125 L 182.363281 120.53125 L 182.363281 122.988281 Z M 186.800781 122.988281 "
     id="path40" />
  <path
     fill-rule="nonzero"
     fill="rgb(0.392151%, 0.392151%, 0.392151%)"
     fill-opacity="1"
     d="M 189.652344 116.324219 L 190.742188 116.324219 L 190.742188 122.992188 L 194.863281 122.992188 L 194.863281 123.9375 L 189.652344 123.9375 Z M 189.652344 116.324219 "
     id="path42" />
  <path
     fill-rule="nonzero"
     fill="rgb(0.392151%, 0.392151%, 0.392151%)"
     fill-opacity="1"
     d="M 200.238281 115.703125 L 199.261719 115.703125 L 200.738281 114.289062 L 202.066406 114.289062 Z M 201.707031 121.164062 L 200.066406 117.433594 L 198.421875 121.164062 Z M 202.089844 122.03125 L 198.042969 122.03125 L 197.203125 123.9375 L 196.085938 123.9375 L 199.53125 116.324219 L 200.609375 116.324219 L 204.070312 123.9375 L 202.925781 123.9375 Z M 202.089844 122.03125 "
     id="path44" />
  <path
     fill-rule="nonzero"
     fill="rgb(0.392151%, 0.392151%, 0.392151%)"
     fill-opacity="1"
     d="M 212.5 116.324219 L 209.160156 123.9375 L 208.085938 123.9375 L 204.734375 116.324219 L 205.910156 116.324219 L 208.652344 122.578125 L 211.414062 116.324219 Z M 212.5 116.324219 "
     id="path46" />
  <path
     fill-rule="nonzero"
     fill="rgb(0.392151%, 0.392151%, 0.392151%)"
     fill-opacity="1"
     d="M 218.792969 121.164062 L 217.148438 117.433594 L 215.507812 121.164062 Z M 219.171875 122.03125 L 215.125 122.03125 L 214.289062 123.9375 L 213.167969 123.9375 L 216.617188 116.324219 L 217.691406 116.324219 L 221.152344 123.9375 L 220.007812 123.9375 Z M 219.171875 122.03125 "
     id="path48" />
  <path
     fill-rule="nonzero"
     fill="rgb(0.392151%, 0.392151%, 0.392151%)"
     fill-opacity="1"
     d="M 229.921875 116.324219 L 229.921875 123.9375 L 229.027344 123.9375 L 224.460938 118.257812 L 224.460938 123.9375 L 223.375 123.9375 L 223.375 116.324219 L 224.265625 116.324219 L 228.835938 122 L 228.835938 116.324219 Z M 229.921875 116.324219 "
     id="path50" />
  <path
     fill-rule="nonzero"
     fill="rgb(0.392151%, 0.392151%, 0.392151%)"
     fill-opacity="1"
     d="M 233.296875 116.324219 L 234.386719 116.324219 L 234.386719 123.9375 L 233.296875 123.9375 Z M 233.296875 116.324219 "
     id="path52" />
  <path
     fill-rule="nonzero"
     fill="rgb(0.392151%, 0.392151%, 0.392151%)"
     fill-opacity="1"
     d="M 242.226562 121.164062 L 240.585938 117.433594 L 238.941406 121.164062 Z M 242.609375 122.03125 L 238.5625 122.03125 L 237.726562 123.9375 L 236.605469 123.9375 L 240.054688 116.324219 L 241.128906 116.324219 L 244.589844 123.9375 L 243.445312 123.9375 Z M 242.609375 122.03125 "
     id="path54" />
  <path
     fill-rule="nonzero"
     fill="rgb(0.392151%, 0.392151%, 0.392151%)"
     fill-opacity="1"
     d="M 255.296875 121.164062 L 253.652344 117.433594 L 252.011719 121.164062 Z M 255.675781 122.03125 L 251.632812 122.03125 L 250.792969 123.9375 L 249.671875 123.9375 L 253.121094 116.324219 L 254.199219 116.324219 L 257.65625 123.9375 L 256.515625 123.9375 Z M 255.675781 122.03125 "
     id="path56" />
  <path
     fill-rule="nonzero"
     fill="rgb(0.392151%, 0.392151%, 0.392151%)"
     fill-opacity="1"
     d="M 270.953125 123.9375 L 270.941406 118.390625 L 268.1875 123.011719 L 267.6875 123.011719 L 264.9375 118.421875 L 264.9375 123.9375 L 263.894531 123.9375 L 263.894531 116.320312 L 264.785156 116.320312 L 267.960938 121.671875 L 271.09375 116.320312 L 271.984375 116.320312 L 271.996094 123.9375 Z M 270.953125 123.9375 "
     id="path58" />
  <path
     fill-rule="nonzero"
     fill="rgb(0.392151%, 0.392151%, 0.392151%)"
     fill-opacity="1"
     d="M 275.371094 116.324219 L 276.460938 116.324219 L 276.460938 122.992188 L 280.582031 122.992188 L 280.582031 123.9375 L 275.371094 123.9375 Z M 275.371094 116.324219 "
     id="path60" />
  <path
     fill-rule="nonzero"
     fill="rgb(0.392151%, 0.392151%, 0.392151%)"
     fill-opacity="1"
     d="M 285.957031 115.703125 L 284.980469 115.703125 L 286.457031 114.289062 L 287.785156 114.289062 Z M 287.425781 121.164062 L 285.785156 117.433594 L 284.140625 121.164062 Z M 287.808594 122.03125 L 283.761719 122.03125 L 282.921875 123.9375 L 281.804688 123.9375 L 285.25 116.324219 L 286.328125 116.324219 L 289.789062 123.9375 L 288.644531 123.9375 Z M 287.808594 122.03125 "
     id="path62" />
  <path
     fill-rule="nonzero"
     fill="rgb(0.392151%, 0.392151%, 0.392151%)"
     fill-opacity="1"
     d="M 295.152344 122.988281 C 297.035156 122.988281 298.242188 121.835938 298.242188 120.128906 C 298.242188 118.421875 297.035156 117.269531 295.152344 117.269531 L 293.097656 117.269531 L 293.097656 122.988281 Z M 292.007812 116.320312 L 295.21875 116.320312 C 297.664062 116.320312 299.328125 117.867188 299.328125 120.128906 C 299.328125 122.390625 297.664062 123.9375 295.21875 123.9375 L 292.007812 123.9375 Z M 292.007812 116.320312 "
     id="path64" />
  <path
     fill-rule="nonzero"
     fill="rgb(0.392151%, 0.392151%, 0.392151%)"
     fill-opacity="1"
     d="M 307.609375 122.988281 L 307.609375 123.9375 L 302.085938 123.9375 L 302.085938 116.320312 L 307.457031 116.320312 L 307.457031 117.269531 L 303.171875 117.269531 L 303.171875 119.605469 L 306.988281 119.605469 L 306.988281 120.53125 L 303.171875 120.53125 L 303.171875 122.988281 Z M 307.609375 122.988281 "
     id="path66" />
  <path
     fill-rule="nonzero"
     fill="rgb(0.392151%, 0.392151%, 0.392151%)"
     fill-opacity="1"
     d="M 312.476562 115.703125 L 311.027344 114.289062 L 311.976562 114.289062 L 312.976562 115.113281 L 313.976562 114.289062 L 314.921875 114.289062 L 313.476562 115.703125 Z M 316.152344 122.988281 L 316.152344 123.9375 L 309.789062 123.9375 L 309.789062 123.195312 L 314.574219 117.269531 L 309.863281 117.269531 L 309.863281 116.324219 L 316.011719 116.324219 L 316.011719 117.0625 L 311.246094 122.988281 Z M 316.152344 122.988281 "
     id="path68" />
  <path
     fill-rule="nonzero"
     fill="rgb(0.392151%, 0.392151%, 0.392151%)"
     fill-opacity="1"
     d="M 324.226562 122.988281 L 324.226562 123.9375 L 318.699219 123.9375 L 318.699219 116.320312 L 324.074219 116.320312 L 324.074219 117.269531 L 319.785156 117.269531 L 319.785156 119.605469 L 323.605469 119.605469 L 323.605469 120.53125 L 319.785156 120.53125 L 319.785156 122.988281 Z M 324.226562 122.988281 "
     id="path70" />
  <path
     fill-rule="nonzero"
     fill="rgb(16.470337%, 34.901428%, 50.588989%)"
     fill-opacity="1"
     d="M 165.300781 68.90625 L 165.300781 40.335938 L 171.65625 40.335938 L 171.65625 82.273438 L 167.488281 82.273438 L 144.96875 52.945312 L 144.96875 82.273438 L 138.613281 82.273438 L 138.613281 40.335938 L 143.339844 40.335938 Z M 165.300781 68.90625 "
     id="path72" />
  <path
     fill-rule="nonzero"
     fill="rgb(16.470337%, 34.901428%, 50.588989%)"
     fill-opacity="1"
     d="M 188.175781 82.273438 L 181.820312 82.273438 L 181.820312 40.339844 L 188.175781 40.339844 Z M 188.175781 82.273438 "
     id="path74" />
  <path
     fill-rule="nonzero"
     fill="rgb(16.470337%, 34.901428%, 50.588989%)"
     fill-opacity="1"
     d="M 200.273438 40.335938 L 211.203125 70.175781 L 222.082031 40.335938 L 228.839844 40.335938 L 213.542969 82.273438 L 208.8125 82.273438 L 193.511719 40.335938 Z M 200.273438 40.335938 "
     id="path76" />
  <path
     fill-rule="nonzero"
     fill="rgb(16.470337%, 34.901428%, 50.588989%)"
     fill-opacity="1"
     d="M 260.054688 69.566406 L 251.003906 50.199219 L 241.957031 69.566406 Z M 263 75.921875 L 238.90625 75.921875 L 235.957031 82.273438 L 228.945312 82.273438 L 248.515625 40.335938 L 253.394531 40.335938 L 273.066406 82.273438 L 265.949219 82.273438 Z M 263 75.921875 "
     id="path78" />
  <path
     fill-rule="nonzero"
     fill="rgb(16.470337%, 34.901428%, 50.588989%)"
     fill-opacity="1"
     d="M 297.671875 70.835938 L 284.757812 52.945312 L 284.757812 82.273438 L 278.402344 82.273438 L 278.402344 40.335938 L 283.488281 40.335938 L 300.058594 63.210938 L 316.582031 40.335938 L 321.664062 40.335938 L 321.664062 82.273438 L 315.308594 82.273438 L 315.308594 52.945312 L 302.398438 70.835938 Z M 297.671875 70.835938 "
     id="path80" />
  <path
     fill-rule="nonzero"
     fill="rgb(16.470337%, 34.901428%, 50.588989%)"
     fill-opacity="1"
     d="M 77.117188 96.304688 C 74.777344 96.304688 72.828125 94.476562 72.691406 92.125 C 72.683594 91.949219 72.636719 91.089844 72.648438 89.703125 C 71.296875 49.925781 33.039062 27.96875 32.648438 27.75 C 30.511719 26.546875 29.753906 23.84375 30.953125 21.707031 C 32.152344 19.574219 34.855469 18.816406 36.992188 20.015625 C 38.445312 20.832031 65.941406 36.621094 77.003906 66.472656 C 79 61.410156 81.894531 56.289062 86.085938 51.847656 C 94.105469 43.351562 105.1875 39.042969 119.015625 39.042969 C 121.464844 39.042969 123.449219 41.027344 123.449219 43.476562 C 123.449219 45.929688 121.464844 47.914062 119.015625 47.914062 C 107.746094 47.914062 98.847656 51.273438 92.574219 57.898438 C 82.625 68.40625 81.585938 84.46875 81.527344 89.816406 C 81.546875 90.496094 81.554688 91.179688 81.554688 91.867188 C 81.554688 94.269531 79.648438 96.234375 77.25 96.300781 C 77.207031 96.304688 77.160156 96.304688 77.117188 96.304688 "
     id="path82" />
  <path
     fill-rule="nonzero"
     fill="rgb(16.470337%, 34.901428%, 50.588989%)"
     fill-opacity="1"
     d="M 77.667969 23.882812 C 77.667969 29.523438 73.09375 34.097656 67.453125 34.097656 C 61.808594 34.097656 57.234375 29.523438 57.234375 23.882812 C 57.234375 18.238281 61.808594 13.664062 67.453125 13.664062 C 73.09375 13.664062 77.667969 18.238281 77.667969 23.882812 "
     id="path84" />
</svg>
