<?xml version="1.0" encoding="UTF-8" standalone="no"?>
<svg
   viewBox="0 0 110.55344 130.47878"
   fill="none"
   class="h-24"
   version="1.1"
   id="svg26"
   sodipodi:docname="slovnaft.svg"
   xml:space="preserve"
   width="110.55344"
   height="130.47878"
   inkscape:version="1.2.2 (732a01da63, 2022-12-09)"
   xmlns:inkscape="http://www.inkscape.org/namespaces/inkscape"
   xmlns:sodipodi="http://sodipodi.sourceforge.net/DTD/sodipodi-0.dtd"
   xmlns="http://www.w3.org/2000/svg"
   xmlns:svg="http://www.w3.org/2000/svg"><defs
     id="defs30" /><sodipodi:namedview
     id="namedview28"
     pagecolor="#ffffff"
     bordercolor="#000000"
     borderopacity="0.25"
     inkscape:showpageshadow="2"
     inkscape:pageopacity="0.0"
     inkscape:pagecheckerboard="0"
     inkscape:deskcolor="#d1d1d1"
     showgrid="false"
     inkscape:zoom="4.7376154"
     inkscape:cx="8.6541427"
     inkscape:cy="58.995924"
     inkscape:window-width="1920"
     inkscape:window-height="991"
     inkscape:window-x="-9"
     inkscape:window-y="-9"
     inkscape:window-maximized="1"
     inkscape:current-layer="svg26" /><path
     d="m 94.022457,54.892888 c 0,11.5248 -5.1446,21.9901 -13.1526,29.2674 v -66.5743 c 3.9299,0.604 7.7118,1.2178 11.4937,2.1287 0.9084,0.2971 1.6589,1.0594 1.6589,2.1287 z m -30.5512,38.3664 c -2.8734,0.6039 -5.7469,0.9109 -8.7783,0.9109 -3.0314,0 -5.895,-0.307 -8.7684,-0.9109 v -77.3466 c 3.0216,-0.297 5.9049,-0.297 8.7684,-0.297 2.8636,0 5.895,0 8.7783,0.1485 z m -34.9354,-9.099 c -8.0179,-7.2773 -13.00446,-17.7426 -13.00446,-29.2674 v -33.0594 c 0,-1.0594 0.60233,-1.8217 1.51077,-2.1287 3.78189,-0.9109 7.56369,-1.5148 11.49369,-2.1287 z m 64.8941,-68.703 c -4.088,-0.9109 -8.3241,-1.66337 -12.5601,-2.42575 V 9.6751079 c 0,-1.05941 -0.4543,-2.11882 -1.0566,-2.88119 -0.7603,-0.76238 -1.6589,-1.366339 -2.7253,-1.366339 -2.8734,-0.455445 -6.3492,-0.762376 -9.2226,-0.910891 -2.4192,0 -4.3842,1.9703 -4.3842,4.39604 v 2.4554501 c -2.8735,-0.14852 -5.895,-0.29703 -8.7783,-0.29703 -2.8833,0 -5.7469,0.14851 -8.7684,0.29703 V 8.9127279 c 0,-2.42574 -1.8169,-4.39604 -4.3842,-4.39604 -2.8734,0.148515 -6.2011,0.455446 -9.0745,0.910891 -1.2146,0 -2.123,0.603959 -2.8734,1.366339 -0.6024,0.76237 -1.0566,1.81188 -1.0566,2.88119 v 3.3564301 c -4.2361,0.76238 -8.4722,1.52475 -12.56014,2.42575 -2.72532,0.7624 -4.83842,3.3366 -4.83842,6.3663 v 33.0693 c 0,24.1189 19.51166,43.6733 43.55566,43.6733 24.044,0 43.7136,-19.5643 43.7136,-43.6733 v -33.0594 c 0,-3.0297 -2.1131,-5.6138 -4.9865,-6.3663"
     fill="#ffed00"
     id="path2" /><path
     d="m 94.018557,21.833588 v 33.0594 c 0,11.5247 -5.1445,21.9901 -13.1526,29.2673 v -66.5743 c 3.93,0.604 7.7118,1.2179 11.4937,2.1287 0.9084,0.2971 1.6589,1.0595 1.6589,2.1288"
     fill="#000000"
     id="path4" /><path
     d="m 63.482957,15.764188 v 77.4951 c -2.8734,0.6039 -5.7469,0.9109 -8.7783,0.9109 -3.0314,0 -5.895,-0.307 -8.7684,-0.9109 v -77.3466 c 3.0215,-0.297 5.9048,-0.297 8.7684,-0.297 2.8636,0 5.895,0 8.7783,0.1485 z"
     fill="#000000"
     id="path6" /><path
     d="m 28.542357,17.585988 v 66.5743 c -8.018,-7.2772 -13.00454,-17.7426 -13.00454,-29.2673 v -33.0594 c 0,-1.0594 0.61221,-1.8218 1.51077,-2.1287 3.78187,-0.9109 7.56377,-1.5149 11.49377,-2.1288"
     fill="#000000"
     id="path8" /><path
     d="m 21.491857,114.98169 c -0.79,-0.416 -1.99466,-0.821 -3.64367,-1.208 -1.63914,-0.386 -2.67594,-0.762 -3.10054,-1.118 -0.33573,-0.278 -0.50359,-0.624 -0.50359,-1.02 0,-0.436 0.17774,-0.782 0.53321,-1.04 0.55297,-0.406 1.32316,-0.604 2.30072,-0.604 0.97756,0 1.65889,0.188 2.13286,0.565 0.47397,0.376 0.78011,1 0.92821,1.861 l 3.3671,-0.149 c -0.0494,-1.534 -0.6122,-2.772 -1.6687,-3.693 -1.0566,-0.92 -2.63649,-1.386 -4.72984,-1.386 -1.28367,0 -2.37972,0.198 -3.28815,0.584 -0.90844,0.387 -1.59965,0.951 -2.08349,1.693 -0.48384,0.743 -0.72082,1.535 -0.72082,2.396 0,1.327 0.51346,2.446 1.54039,3.367 0.7307,0.653 1.99462,1.208 3.80162,1.653 1.40215,0.347 2.30072,0.594 2.69569,0.733 0.57271,0.208 0.9776,0.446 1.2145,0.723 0.237,0.277 0.3456,0.614 0.3456,1.01 0,0.614 -0.2764,1.158 -0.8294,1.614 -0.55296,0.465 -1.36266,0.693 -2.44883,0.693 -1.02693,0 -1.83663,-0.258 -2.43896,-0.783 -0.60234,-0.514 -1.00718,-1.326 -1.20467,-2.435 l -3.278278,0.317 c 0.217236,1.871 0.898568,3.297 2.024238,4.277 1.13555,0.98 2.75494,1.465 4.86804,1.465 1.45153,0 2.66606,-0.208 3.63376,-0.614 0.9776,-0.406 1.728,-1.029 2.2513,-1.871 0.5333,-0.842 0.7999,-1.733 0.7999,-2.693 0,-1.059 -0.2173,-1.951 -0.6616,-2.663 -0.4444,-0.723 -1.0566,-1.288 -1.8465,-1.703"
     fill="#ffffff"
     id="path10" /><path
     d="m 29.502757,107.48669 h -3.1993 v 16.743 h 3.1993 z"
     fill="#ffffff"
     id="path12" /><path
     d="m 39.983157,120.92269 c -0.5628,0.643 -1.2639,0.96 -2.1032,0.96 -0.8393,0 -1.5305,-0.317 -2.1032,-0.96 -0.5727,-0.634 -0.8492,-1.564 -0.8492,-2.762 0,-1.198 0.2863,-2.129 0.8492,-2.763 0.5727,-0.634 1.2738,-0.96 2.1032,-0.96 0.8294,0 1.5404,0.317 2.1032,0.96 0.5629,0.644 0.8492,1.555 0.8492,2.743 0,1.188 -0.2863,2.148 -0.8492,2.782 z m -2.1131,-9.099 c -1.1849,0 -2.2612,0.267 -3.219,0.792 -0.9578,0.525 -1.6984,1.287 -2.2217,2.287 -0.5234,1 -0.79,2.03 -0.79,3.099 0,1.396 0.2666,2.574 0.79,3.545 0.5233,0.97 1.2836,1.703 2.2908,2.208 1.0072,0.505 2.0637,0.752 3.1697,0.752 1.7971,0 3.2782,-0.604 4.4632,-1.812 1.1849,-1.208 1.7773,-2.732 1.7773,-4.564 0,-1.832 -0.5825,-3.327 -1.7576,-4.515 -1.1652,-1.188 -2.666,-1.782 -4.4928,-1.782"
     fill="#ffffff"
     id="path14" /><path
     d="m 51.165357,118.28869 c -0.1185,0.347 -0.237,0.684 -0.3357,1.03 -0.0494,0.168 -0.158,0.515 -0.3358,1.04 l -0.6615,-2.07 -2.281,-6.188 h -3.3573 l 4.8681,12.129 h 2.8833 l 4.8088,-12.129 h -3.2882 z"
     fill="#ffffff"
     id="path16" /><path
     d="m 68.406157,113.17969 c -0.2962,-0.396 -0.7405,-0.722 -1.3231,-0.98 -0.5826,-0.257 -1.2343,-0.386 -1.9354,-0.386 -1.5996,0 -2.9327,0.683 -3.9892,2.059 v -1.782 h -2.9722 v 12.129 h 3.1993 v -5.495 c 0,-1.357 0.079,-2.287 0.2468,-2.782 0.1679,-0.505 0.4641,-0.901 0.9085,-1.208 0.4443,-0.307 0.938,-0.456 1.491,-0.456 0.4345,0 0.8097,0.109 1.1158,0.317 0.3061,0.218 0.5233,0.515 0.6616,0.891 0.1382,0.386 0.2073,1.228 0.2073,2.545 v 6.188 h 3.1993 v -7.535 c 0,-0.93 -0.0592,-1.653 -0.1777,-2.158 -0.1185,-0.505 -0.3259,-0.951 -0.6221,-1.347"
     fill="#ffffff"
     id="path18" /><path
     d="m 78.710457,119.04169 c 0,0.772 -0.0395,1.287 -0.1283,1.564 -0.1185,0.416 -0.3753,0.772 -0.7604,1.06 -0.5233,0.386 -1.0763,0.574 -1.649,0.574 -0.5233,0 -0.9479,-0.168 -1.2738,-0.495 -0.3357,-0.327 -0.5035,-0.713 -0.5035,-1.169 0,-0.455 0.2073,-0.831 0.622,-1.128 0.2765,-0.188 0.8591,-0.367 1.7478,-0.565 0.8887,-0.188 1.5404,-0.356 1.9452,-0.485 z m 3.1104,1.198 0.0395,-3.743 c 0,-1.396 -0.1481,-2.346 -0.4246,-2.871 -0.2863,-0.525 -0.78,-0.951 -1.4712,-1.287 -0.7011,-0.337 -1.7675,-0.505 -3.1894,-0.505 -1.5701,0 -2.755,0.277 -3.5548,0.841 -0.7998,0.565 -1.3626,1.436 -1.6885,2.604 l 2.903,0.525 c 0.1975,-0.564 0.4543,-0.96 0.7702,-1.178 0.316,-0.228 0.7702,-0.337 1.3331,-0.337 0.8393,0 1.412,0.129 1.7181,0.396 0.3061,0.258 0.4542,0.703 0.4542,1.317 v 0.317 c -0.5727,0.238 -1.6095,0.505 -3.1104,0.792 -1.1059,0.208 -1.9551,0.465 -2.5476,0.753 -0.5924,0.287 -1.0466,0.693 -1.3725,1.227 -0.3258,0.535 -0.4937,1.149 -0.4937,1.832 0,1.04 0.3555,1.891 1.0763,2.564 0.7208,0.674 1.6984,1.02 2.9425,1.02 0.711,0 1.3726,-0.138 1.9947,-0.396 0.622,-0.267 1.2046,-0.663 1.7477,-1.198 0.0198,0.06 0.0593,0.188 0.1185,0.376 0.1185,0.416 0.2271,0.733 0.3061,0.951 h 3.1697 c -0.2765,-0.574 -0.474,-1.119 -0.5727,-1.624 -0.0988,-0.505 -0.158,-1.297 -0.158,-2.356"
     fill="#ffffff"
     id="path20" /><path
     d="m 88.443557,109.99169 c 0.1974,-0.218 0.5332,-0.327 0.9973,-0.327 0.4641,0 0.9578,0.06 1.4712,0.179 l 0.4345,-2.238 c -0.8689,-0.277 -1.7675,-0.416 -2.6759,-0.416 -0.9085,0 -1.6194,0.159 -2.202,0.475 -0.5826,0.317 -0.9776,0.723 -1.1948,1.228 -0.2172,0.505 -0.3259,1.268 -0.3259,2.287 v 0.911 h -1.7773 v 2.525 h 1.7773 v 9.604 h 3.1993 v -9.604 h 2.3896 v -2.525 h -2.3896 v -0.851 c 0,-0.614 0.0988,-1.03 0.2963,-1.248 z"
     fill="#ffffff"
     id="path22" /><path
     d="m 98.171857,121.52669 c -0.5628,0.208 -0.9973,0.307 -1.2837,0.307 -0.2172,0 -0.3949,-0.05 -0.5431,-0.159 -0.1481,-0.108 -0.2369,-0.237 -0.2863,-0.405 -0.0395,-0.159 -0.0593,-0.743 -0.0593,-1.733 v -4.891 h 2.1823 v -2.555 h -2.1823 v -4.614 l -3.2091,1.872 v 2.742 h -1.4713 v 2.555 h 1.4713 v 5.287 c 0,1.139 0.0296,1.891 0.0987,2.267 0.079,0.525 0.2271,0.941 0.4542,1.248 0.2173,0.307 0.553,0.564 1.0171,0.752 0.4641,0.198 0.9776,0.287 1.5601,0.287 0.948,0 1.7873,-0.158 2.5279,-0.475 l -0.2666,-2.485 z"
     fill="#ffffff"
     id="path24" /></svg>
