<?xml version="1.0" encoding="UTF-8" standalone="no"?>
<!-- Created with Inkscape (http://www.inkscape.org/) -->

<svg
   width="68.696579mm"
   height="14.99995mm"
   viewBox="0 0 68.696579 14.99995"
   version="1.1"
   id="svg5"
   xml:space="preserve"
   inkscape:version="1.2.2 (b0a8486541, 2022-12-01)"
   sodipodi:docname="tatrabanka.svg"
   xmlns:inkscape="http://www.inkscape.org/namespaces/inkscape"
   xmlns:sodipodi="http://sodipodi.sourceforge.net/DTD/sodipodi-0.dtd"
   xmlns="http://www.w3.org/2000/svg"
   xmlns:svg="http://www.w3.org/2000/svg"><sodipodi:namedview
     id="namedview7"
     pagecolor="#ffffff"
     bordercolor="#000000"
     borderopacity="0.25"
     inkscape:showpageshadow="2"
     inkscape:pageopacity="0.0"
     inkscape:pagecheckerboard="0"
     inkscape:deskcolor="#d1d1d1"
     inkscape:document-units="mm"
     showgrid="false"
     inkscape:zoom="0.25543588"
     inkscape:cx="127.2335"
     inkscape:cy="-1305.6114"
     inkscape:window-width="1858"
     inkscape:window-height="1011"
     inkscape:window-x="0"
     inkscape:window-y="0"
     inkscape:window-maximized="1"
     inkscape:current-layer="layer1" /><defs
     id="defs2" /><g
     inkscape:label="Layer 1"
     inkscape:groupmode="layer"
     id="layer1"
     transform="translate(-23.951122,-182.6422)"><g
       id="g2524"><path
         fill-rule="nonzero"
         fill="#ffffff"
         fill-opacity="1"
         d="m 38.944177,192.98852 -0.129536,0.60082 h -1.014236 l -0.592556,2.79328 h -0.713824 l 0.592557,-2.79328 h -1.019749 l 0.128158,-0.60082 z m 0,0"
         id="path1917"
         style="stroke-width:0.352778" /><path
         fill-rule="nonzero"
         fill="#ffffff"
         fill-opacity="1"
         d="m 39.783402,193.57831 -0.159852,0.74828 h 0.833713 c 0.148828,0 0.275608,-0.0276 0.381717,-0.0841 0.10473,-0.0565 0.172255,-0.15572 0.203949,-0.29766 0.03169,-0.15847 -0.0083,-0.2632 -0.118511,-0.31281 -0.09922,-0.0358 -0.23151,-0.0538 -0.395497,-0.0538 z m -0.279741,1.31052 -0.19017,0.90399 h 0.833713 c 0.148829,0 0.26734,-0.0193 0.35829,-0.0593 0.168121,-0.0744 0.27423,-0.21498 0.318327,-0.42444 0.03583,-0.17639 -0.01102,-0.29766 -0.143316,-0.3638 -0.07304,-0.0358 -0.183279,-0.0551 -0.330729,-0.0565 z m 2.182812,-1.53789 c 0.07442,0.14331 0.09095,0.31695 0.04823,0.51814 -0.0441,0.20671 -0.132291,0.37345 -0.264583,0.49885 -0.07166,0.0717 -0.170875,0.13505 -0.296278,0.19293 0.158476,0.0634 0.268719,0.16398 0.327972,0.30041 0.05926,0.13642 0.06752,0.30179 0.02618,0.49609 -0.04272,0.2012 -0.132292,0.38172 -0.267339,0.54157 -0.08682,0.10611 -0.187413,0.19431 -0.299034,0.26734 -0.125401,0.0827 -0.265961,0.13918 -0.420301,0.17088 -0.154341,0.0303 -0.318327,0.0455 -0.49196,0.0455 h -1.536513 l 0.719336,-3.3941 h 1.649512 c 0.413413,0.007 0.68213,0.12815 0.804774,0.36242"
         id="path1919"
         style="stroke-width:0.352778" /><path
         fill-rule="nonzero"
         fill="#ffffff"
         fill-opacity="1"
         d="m 40.282252,185.79929 v 0.15434 h 2.265496 v 11.53418 H 24.105462 v -11.53418 h 9.016504 v -0.15434 h -9.170844 v 11.84286 h 18.750966 v -11.84286 z m 0,0"
         id="path1921"
         style="stroke-width:0.352778" /><path
         fill-rule="nonzero"
         fill="#ffffff"
         fill-opacity="1"
         d="m 27.126122,196.38262 5.356434,-9.3238 h -2.550749 l -5.356434,9.3238 z m 0,0"
         id="path1923"
         style="stroke-width:0.352778" /><path
         fill-rule="nonzero"
         fill="#ffffff"
         fill-opacity="1"
         d="m 30.352109,196.38262 7.892025,-13.74042 h -2.550749 l -7.897537,13.74042 z m 0,0"
         id="path1925"
         style="stroke-width:0.352778" /><path
         fill-rule="nonzero"
         fill="#ffffff"
         fill-opacity="1"
         d="m 33.572584,196.38262 6.644901,-11.56449 h -2.549371 l -6.646279,11.56449 z m 0,0"
         id="path1927"
         style="stroke-width:0.352778" /><path
         fill-rule="nonzero"
         fill="#ffffff"
         fill-opacity="1"
         d="m 46.203683,185.77449 h 1.65778 l 3.004122,5.27788 v -5.27788 h 1.473122 v 7.56818 H 50.7581 l -3.081295,-5.37021 v 5.37021 h -1.473122 z m 0,0"
         id="path1929"
         style="stroke-width:0.352778" /><path
         fill-rule="nonzero"
         fill="#ffffff"
         fill-opacity="1"
         d="M 55.673561,190.48324 H 57.61246 L 56.6561,187.5053 Z m 0.104729,-4.70875 h 1.788697 l 2.677527,7.56818 h -1.714282 l -0.500224,-1.5558 h -2.786395 l -0.514007,1.5558 H 53.07596 Z m 0,0"
         id="path1931"
         style="stroke-width:0.352778" /><path
         fill-rule="nonzero"
         fill="#ffffff"
         fill-opacity="1"
         d="m 62.533435,187.08913 v 4.94027 h 1.460722 c 0.746894,0 1.267795,-0.36932 1.562693,-1.10518 0.16123,-0.40377 0.242534,-0.88471 0.242534,-1.44281 0,-0.77033 -0.121267,-1.3615 -0.363802,-1.77354 -0.241155,-0.41203 -0.72209,-0.61874 -1.441425,-0.61874 z m 2.899392,-1.15066 c 0.530546,0.17501 0.960494,0.49472 1.289844,0.96049 0.263204,0.37621 0.443727,0.78411 0.538811,1.22232 0.09646,0.43822 0.144696,0.85577 0.144696,1.25264 0,1.00597 -0.202572,1.85898 -0.606337,2.55764 -0.54846,0.9412 -1.394573,1.41111 -2.539725,1.41111 h -3.263194 v -7.56818 h 3.263194 c 0.469911,0.007 0.861275,0.0606 1.172711,0.16398"
         id="path1933"
         style="stroke-width:0.352778" /><path
         fill-rule="nonzero"
         fill="#ffffff"
         fill-opacity="1"
         d="m 73.182914,183.63301 -1.561317,1.53514 h -1.056954 l 0.985294,-1.53514 z m -2.740918,6.85023 h 1.938899 l -0.956356,-2.97794 z m 0.104729,-4.70875 h 1.788697 l 2.678906,7.56818 h -1.715657 l -0.498853,-1.5558 h -2.78777 l -0.514007,1.5558 h -1.653646 z m 0,0"
         id="path1935"
         style="stroke-width:0.352778" /><path
         fill-rule="nonzero"
         fill="#ffffff"
         fill-opacity="1"
         d="m 76.488826,186.56548 c 0.610472,-0.62288 1.386308,-0.93431 2.327508,-0.93431 1.259526,0 2.180057,0.41754 2.762966,1.25264 0.32246,0.46853 0.494718,0.93982 0.518143,1.41111 h -1.580611 c -0.100594,-0.36243 -0.230131,-0.63666 -0.388606,-0.82131 -0.281118,-0.32798 -0.698665,-0.49196 -1.252636,-0.49196 -0.562239,0 -1.007346,0.23151 -1.332561,0.69453 -0.325219,0.4644 -0.487829,1.12034 -0.487829,1.96922 0,0.85024 0.172255,1.48552 0.514008,1.90858 0.344512,0.42168 0.779971,0.6339 1.309137,0.6339 0.542946,0 0.95636,-0.18191 1.241612,-0.54433 0.157099,-0.19568 0.286632,-0.48782 0.391365,-0.87781 h 1.570962 c -0.135047,0.82407 -0.480935,1.49517 -1.03904,2.01193 -0.556726,0.51815 -1.270551,0.77584 -2.141471,0.77584 -1.076247,0 -1.923743,-0.34864 -2.539725,-1.04731 -0.615981,-0.70142 -0.924662,-1.66329 -0.924662,-2.88561 0,-1.32154 0.351399,-2.33991 1.05144,-3.05511"
         id="path1937"
         style="stroke-width:0.352778" /><path
         fill-rule="nonzero"
         fill="#ffffff"
         fill-opacity="1"
         d="m 84.59307,193.34267 h -1.570962 v -7.56818 h 1.570962 z m 0,0"
         id="path1939"
         style="stroke-width:0.352778" /><path
         fill-rule="nonzero"
         fill="#ffffff"
         fill-opacity="1"
         d="m 87.92241,190.48324 h 1.938899 l -0.956356,-2.97794 z m 0.103354,-4.70875 h 1.790072 l 2.677527,7.56818 h -1.714278 l -0.498852,-1.5558 h -2.78777 l -0.514008,1.5558 h -1.653646 z m 0,0"
         id="path1941"
         style="stroke-width:0.352778" /><path
         fill-rule="nonzero"
         fill="#ffffff"
         fill-opacity="1"
         d="m 47.99651,195.43729 v 0.2632 h -0.741384 v 1.93753 h -0.30179 v -1.93753 h -0.741384 v -0.2632 z m 0,0"
         id="path1943"
         style="stroke-width:0.352778" /><path
         fill-rule="nonzero"
         fill="#ffffff"
         fill-opacity="1"
         d="m 51.937698,196.73678 -0.338995,-0.97289 -0.352778,0.97289 z m -0.494715,-1.29949 h 0.336243 l 0.799261,2.20073 h -0.326595 l -0.230131,-0.65871 h -0.862655 l -0.2384,0.65871 h -0.305922 z m 0,0"
         id="path1945"
         style="stroke-width:0.352778" /><path
         fill-rule="nonzero"
         fill="#ffffff"
         fill-opacity="1"
         d="m 56.977185,195.43729 v 0.2632 h -0.741384 v 1.93753 H 55.93401 v -1.93753 h -0.741384 v -0.2632 z m 0,0"
         id="path1947"
         style="stroke-width:0.352778" /><path
         fill-rule="nonzero"
         fill="#ffffff"
         fill-opacity="1"
         d="m 60.786084,196.44601 c 0.135047,0 0.242535,-0.0275 0.32246,-0.0841 0.07855,-0.0565 0.118512,-0.15709 0.118512,-0.30179 0,-0.15709 -0.05512,-0.26458 -0.166744,-0.32108 -0.05926,-0.0303 -0.137805,-0.0455 -0.237024,-0.0455 h -0.708311 v 0.75241 z m -0.968763,-1.00872 h 1.000457 c 0.163985,0 0.300411,0.0248 0.406519,0.0744 0.203952,0.0937 0.305926,0.26734 0.305926,0.51952 0,0.1323 -0.02755,0.23978 -0.08268,0.32384 -0.05374,0.0827 -0.129536,0.15021 -0.228755,0.2012 0.08682,0.0358 0.151585,0.0813 0.194303,0.1378 0.0441,0.0579 0.06753,0.15021 0.07304,0.27699 l 0.01101,0.2949 c 0.0028,0.0841 0.0096,0.14745 0.02067,0.18741 0.01792,0.0703 0.04961,0.11575 0.09509,0.13505 v 0.0496 h -0.365168 c -0.0096,-0.0193 -0.01792,-0.0441 -0.02342,-0.073 -0.0055,-0.0303 -0.01101,-0.0882 -0.01517,-0.17363 l -0.01792,-0.36794 c -0.0069,-0.14331 -0.05926,-0.23978 -0.155716,-0.28801 -0.05512,-0.0275 -0.14194,-0.0413 -0.260448,-0.0413 h -0.660083 v 0.94396 H 59.81732 Z m 0,0"
         id="path1949"
         style="stroke-width:0.352778" /><path
         fill-rule="nonzero"
         fill="#ffffff"
         fill-opacity="1"
         d="m 65.664337,196.73678 -0.338998,-0.97289 -0.352778,0.97289 z m -0.494714,-1.29949 h 0.33624 l 0.799264,2.20073 h -0.326595 l -0.230135,-0.65871 h -0.862651 l -0.2384,0.65871 h -0.305925 z m 0,0"
         id="path1951"
         style="stroke-width:0.352778" /><path
         fill-rule="nonzero"
         fill="#ffffff"
         fill-opacity="1"
         d="m 73.31245,197.38308 c 0.184658,0 0.315571,-0.0524 0.39412,-0.15848 0.04961,-0.0675 0.07441,-0.14745 0.07441,-0.24253 0,-0.15985 -0.07166,-0.26872 -0.216352,-0.3266 -0.07579,-0.0303 -0.177765,-0.0469 -0.303167,-0.0469 H 72.66339 v 0.77446 z m -0.100598,-1.01562 c 0.126782,0 0.226,-0.0165 0.296281,-0.0524 0.111619,-0.0538 0.16674,-0.15296 0.16674,-0.29628 0,-0.14332 -0.05926,-0.23978 -0.177765,-0.29077 -0.06614,-0.0275 -0.165364,-0.0413 -0.29628,-0.0413 h -0.537436 v 0.68074 z m -0.840602,-0.93017 h 0.952225 c 0.259069,0 0.443727,0.0772 0.552591,0.23151 0.06477,0.0909 0.09646,0.19568 0.09646,0.31419 0,0.13918 -0.03858,0.25218 -0.118512,0.34176 -0.03996,0.0469 -0.09922,0.0896 -0.176389,0.12815 0.113002,0.0441 0.197062,0.0923 0.253559,0.14607 0.09784,0.0951 0.14883,0.22738 0.14883,0.39688 0,0.14194 -0.04548,0.2701 -0.135047,0.38447 -0.133671,0.17226 -0.345888,0.2577 -0.638034,0.2577 H 72.37125 Z m 0,0"
         id="path1953"
         style="stroke-width:0.352778" /><path
         fill-rule="nonzero"
         fill="#ffffff"
         fill-opacity="1"
         d="m 78.092864,196.73678 -0.338998,-0.97289 -0.352778,0.97289 z m -0.494714,-1.29949 h 0.33624 l 0.797884,2.20073 h -0.325219 l -0.230131,-0.65871 h -0.862651 l -0.239779,0.65871 h -0.304546 z m 0,0"
         id="path1955"
         style="stroke-width:0.352778" /><path
         fill-rule="nonzero"
         fill="#ffffff"
         fill-opacity="1"
         d="m 81.532448,195.43729 h 0.351398 l 1.09692,1.77767 v -1.77767 h 0.283877 v 2.20073 h -0.334864 l -1.113454,-1.77492 v 1.77492 h -0.283877 z m 0,0"
         id="path1957"
         style="stroke-width:0.352778" /><path
         fill-rule="nonzero"
         fill="#ffffff"
         fill-opacity="1"
         d="m 86.27841,195.43729 h 0.290766 v 1.07762 l 1.099675,-1.07762 h 0.417545 l -0.939821,0.88883 0.959114,1.3119 h -0.389985 l -0.788236,-1.10519 -0.358292,0.339 v 0.76619 H 86.27841 Z m 0,0"
         id="path1959"
         style="stroke-width:0.352778" /><path
         fill-rule="nonzero"
         fill="#ffffff"
         fill-opacity="1"
         d="m 90.685377,195.43729 h 0.347267 l 0.63252,1.05833 0.632516,-1.05833 h 0.350023 l -0.832333,1.31465 v 0.88608 h -0.299036 v -0.88608 z m 0,0"
         id="path1961"
         style="stroke-width:0.352778" /></g></g></svg>
